<?xml version="1.0" standalone="no"?>
<!DOCTYPE svg PUBLIC "-//W3C//DTD SVG 20010904//EN"
 "http://www.w3.org/TR/2001/REC-SVG-20010904/DTD/svg10.dtd">
<svg version="1.0" xmlns="http://www.w3.org/2000/svg"
 width="720.000000pt" height="720.000000pt" viewBox="0 0 720.000000 720.000000"
 preserveAspectRatio="xMidYMid meet">
<metadata>
Created by potrace 1.11, written by Peter Selinger 2001-2013
</metadata>
<g transform="translate(0.000000,720.000000) scale(0.100000,-0.100000)"
fill="#000000" stroke="none">
<path d="M2565 7191 c-10 -17 4 -31 31 -31 19 0 25 5 22 18 -4 19 -43 29 -53
13z"/>
<path d="M3510 7190 c19 -13 30 -13 30 0 0 6 -10 10 -22 10 -19 0 -20 -2 -8
-10z"/>
<path d="M3815 7172 c9 -38 16 -42 58 -35 21 3 35 8 32 11 -2 3 0 11 5 17 13
16 -10 27 -63 31 -37 2 -38 1 -32 -24z"/>
<path d="M6683 7150 l6 -51 -64 4 c-40 2 -66 -1 -68 -7 -3 -7 -12 -4 -24 7
-13 11 -36 17 -71 17 -29 0 -52 4 -52 9 0 5 -9 7 -20 4 -12 -3 -20 0 -20 7 0
8 -8 10 -24 6 -13 -3 -37 -1 -54 5 -25 8 -36 7 -56 -6 -18 -12 -36 -15 -60
-11 -29 6 -35 3 -41 -15 -6 -19 -12 -21 -49 -14 -22 4 -63 8 -91 9 -27 0 -53
5 -57 11 -5 6 -12 5 -20 -3 -6 -6 -20 -12 -30 -12 -10 0 -18 -5 -18 -11 0 -7
11 -8 29 -4 17 3 32 2 36 -4 4 -7 -4 -11 -20 -11 -20 0 -26 -4 -21 -15 3 -10
-1 -15 -13 -15 -11 0 -21 4 -23 9 -1 4 -50 5 -108 0 -240 -18 -269 -4 -47 23
126 15 131 17 47 12 -52 -3 -150 -7 -218 -10 -68 -2 -132 -9 -142 -14 -26 -14
-77 -12 -84 3 -5 10 -7 10 -12 0 -3 -7 -23 -13 -45 -13 -28 0 -38 4 -33 11 5
9 -9 10 -54 5 -38 -4 -63 -3 -67 4 -6 9 48 16 98 12 9 -1 17 3 17 8 0 7 -19 9
-47 6 -27 -3 -92 -8 -146 -11 -53 -3 -186 -12 -295 -20 -108 -8 -314 -17 -457
-20 -147 -4 -277 -11 -300 -18 l-40 -11 55 -6 c64 -6 70 -25 7 -25 -41 0 -149
22 -114 24 9 1 17 4 17 9 0 8 -49 32 -67 32 -7 0 -13 5 -13 10 0 17 -28 11
-43 -10 -15 -21 -84 -34 -104 -18 -19 15 -276 17 -291 1 -7 -7 -9 -13 -3 -13
5 0 13 5 16 10 4 6 11 8 16 4 17 -10 -1 -24 -32 -24 -20 0 -28 4 -23 11 5 9
-3 10 -30 5 -46 -9 -49 10 -3 22 l32 9 -50 11 c-31 7 -54 7 -60 1 -5 -5 -29
-10 -55 -10 l-45 -2 48 -10 c26 -6 47 -14 47 -19 0 -14 -28 -7 -97 25 -17 7
-34 7 -63 -3 -22 -7 -43 -10 -47 -7 -3 4 2 8 13 8 11 1 6 4 -11 8 -17 4 -33 2
-37 -3 -4 -7 -28 -6 -70 2 -35 7 -108 13 -163 13 -82 -1 -108 3 -140 19 -43
22 -55 24 -55 11 0 -11 102 -60 142 -68 55 -11 36 -19 -43 -19 -47 1 -83 6
-87 13 -4 6 -47 14 -97 18 -77 7 -93 11 -113 32 -21 22 -50 24 -36 2 4 -7 -8
-8 -33 -4 l-38 7 30 -17 c40 -22 45 -29 15 -19 -14 4 -43 9 -65 10 -22 2 -64
5 -93 8 -29 3 -52 1 -52 -5 0 -5 -7 -9 -15 -9 -8 0 -14 5 -12 12 1 7 -5 13
-13 14 -8 0 -19 2 -25 4 -5 1 -23 3 -40 4 -16 1 -42 6 -57 10 -19 5 -28 4 -28
-3 0 -6 9 -11 19 -11 11 0 23 -4 26 -10 3 -5 -3 -10 -14 -10 -11 0 -22 -4 -26
-10 -3 -5 -15 -6 -28 -1 -13 5 -34 7 -48 4 -14 -3 -49 6 -82 21 -31 14 -57 21
-57 17 0 -4 10 -13 23 -18 20 -10 21 -11 3 -18 -11 -5 -21 -3 -26 5 -6 9 -12
9 -29 1 -34 -19 -172 -7 -189 16 -13 17 -14 17 -29 -4 -8 -12 -21 -19 -29 -16
-21 8 -17 23 6 23 11 0 20 5 20 10 0 12 -23 13 -35 1 -20 -17 -72 -20 -94 -5
-11 8 -54 18 -94 21 l-72 6 22 -22 c12 -11 30 -21 40 -21 10 0 26 -7 36 -15
17 -12 11 -13 -49 -9 -37 2 -70 8 -73 13 -3 5 -26 9 -51 10 -25 1 -66 4 -92 7
-27 3 -48 2 -48 -2 0 -14 14 -30 35 -42 18 -10 17 -11 -12 -12 -25 0 -31 4
-27 15 5 13 -10 15 -102 15 -100 -1 -107 -2 -79 -14 28 -13 25 -14 -45 -11
-41 1 -86 7 -100 12 -26 11 -60 6 -60 -8 0 -5 18 -12 40 -15 70 -11 53 -23
-27 -18 -72 4 -174 20 -145 23 6 0 12 6 12 11 0 14 -46 12 -78 -4 -15 -7 -49
-14 -76 -15 -45 -1 -124 -26 -127 -40 -1 -3 -3 -15 -5 -26 -13 -71 -17 -85
-25 -85 -5 0 -9 11 -9 25 0 23 -4 25 -45 25 -34 0 -45 -4 -45 -16 0 -8 5 -12
10 -9 23 14 49 -6 55 -43 3 -20 10 -45 16 -54 5 -10 9 -36 9 -57 0 -28 5 -43
18 -50 14 -8 15 -13 4 -31 -10 -17 -11 -42 -2 -122 9 -79 9 -116 -1 -165 -11
-55 -11 -65 4 -80 9 -10 18 -34 21 -53 3 -19 3 -29 0 -22 -8 17 -24 15 -24 -3
0 -8 5 -15 10 -15 6 0 10 -18 10 -40 0 -31 -3 -38 -15 -34 -8 4 -15 1 -15 -5
0 -6 6 -11 13 -11 8 -1 7 -4 -3 -13 -16 -13 -15 -54 2 -74 5 -7 7 -17 3 -24
-4 -6 -1 -15 6 -20 10 -6 14 -30 14 -79 0 -55 3 -70 15 -70 13 0 13 -1 0 -10
-11 -7 -15 -41 -17 -162 -3 -119 -6 -154 -17 -160 -22 -12 -45 -64 -35 -79 4
-8 16 -14 26 -14 11 0 21 -12 27 -34 8 -27 7 -36 -7 -46 -20 -14 -22 -32 -4
-38 9 -3 9 -7 0 -19 -9 -10 -10 -17 -1 -26 6 -6 7 -18 3 -29 -12 -27 -14 -86
-3 -100 5 -7 7 -17 3 -22 -3 -6 -2 -18 3 -28 7 -11 6 -31 -2 -57 -8 -27 -10
-81 -6 -156 3 -63 2 -116 -2 -118 -5 -2 -8 -15 -8 -28 0 -14 -5 -35 -11 -46
-7 -13 -7 -24 -1 -30 6 -6 12 0 16 18 5 20 10 24 18 16 8 -8 8 -15 1 -24 -18
-23 -21 -57 -7 -75 8 -11 11 -30 8 -49 -4 -19 -1 -35 6 -39 8 -5 6 -11 -7 -21
-10 -7 -13 -14 -7 -14 12 0 12 -71 0 -127 -4 -19 -3 -34 3 -38 6 -3 11 -13 11
-21 0 -9 -5 -12 -12 -8 -6 4 -3 -8 9 -27 11 -19 18 -40 16 -48 -3 -7 1 -18 8
-23 11 -7 11 -11 2 -15 -20 -8 -15 -23 7 -23 22 0 26 -29 9 -65 -7 -14 -8 -9
-3 20 l6 40 -21 -24 c-14 -16 -18 -28 -11 -36 5 -6 7 -21 3 -33 -3 -14 -1 -22
7 -22 8 0 10 -9 6 -27 -3 -16 -3 -22 0 -15 3 6 12 12 20 12 12 0 13 -8 8 -37
-4 -21 -12 -45 -19 -53 -7 -8 -11 -28 -8 -45 9 -55 10 -154 1 -149 -9 6 1 -26
15 -43 6 -9 5 -18 -2 -27 -7 -8 -8 -16 -4 -19 10 -6 8 -770 -2 -787 -4 -7 -2
-16 6 -20 10 -7 10 -11 -1 -25 -12 -14 -12 -18 0 -25 12 -7 11 -11 -1 -26 -12
-15 -12 -16 6 -11 19 6 20 2 22 -66 1 -46 -3 -80 -12 -93 -12 -18 -12 -24 0
-40 18 -23 20 -43 3 -26 -17 17 -29 15 -22 -3 4 -8 12 -15 19 -15 9 0 11 -46
9 -202 -4 -244 -5 -213 2 -271 4 -27 3 -77 -1 -112 -5 -51 -10 -65 -26 -70
-13 -4 -19 -16 -19 -36 0 -20 4 -28 11 -23 19 12 27 -16 28 -105 1 -47 3 -101
6 -118 4 -34 -8 -45 -19 -17 -3 9 -6 34 -6 56 0 52 -6 47 -15 -12 -4 -24 -9
-48 -12 -53 -2 -4 0 -14 7 -22 6 -8 10 -39 8 -76 -3 -56 -6 -65 -28 -76 l-25
-13 28 0 c33 0 36 -17 5 -30 -14 -5 -17 -9 -8 -10 13 0 13 -1 0 -10 -13 -9
-12 -12 4 -25 11 -8 16 -15 10 -15 -5 0 -9 -20 -9 -45 0 -43 8 -59 18 -32 2 6
7 9 11 5 9 -7 -16 -59 -36 -76 -11 -9 -14 -4 -14 26 1 98 -30 289 -50 313 -19
22 -17 39 5 39 17 0 21 22 12 86 0 6 -15 11 -31 12 l-30 1 6 -82 c5 -52 12
-85 20 -90 20 -11 17 -28 -2 -20 -13 5 -15 3 -6 -13 11 -22 23 -86 24 -133 1
-17 5 -34 10 -37 11 -7 11 -84 -1 -84 -9 0 -8 -143 2 -175 3 -11 6 -36 6 -55
1 -26 4 -31 11 -20 5 8 10 59 10 113 0 78 3 97 15 97 8 0 19 8 24 19 6 10 18
22 27 25 14 5 15 4 5 -8 -12 -14 -9 -48 18 -211 5 -27 9 -207 9 -398 0 -192 3
-351 7 -355 9 -9 285 -9 285 0 0 4 12 7 27 7 16 0 46 3 68 6 22 4 45 6 50 5 6
-1 43 -3 84 -4 44 -2 76 -8 81 -16 4 -7 10 -8 13 -3 4 5 23 10 43 11 20 1 43
7 50 13 10 8 18 9 27 0 8 -6 16 -8 19 -5 3 3 66 6 140 8 74 1 140 6 147 10 6
4 17 3 24 -2 8 -6 32 -6 67 0 30 5 71 10 90 11 19 2 41 6 48 10 7 5 18 2 27
-6 12 -12 39 -15 137 -11 68 2 141 3 163 3 270 -7 1050 1 1180 12 72 6 93 5
106 -7 9 -8 22 -12 30 -9 8 3 83 11 168 19 132 12 156 16 170 34 24 29 84 35
115 11 18 -14 40 -19 90 -19 37 0 66 -4 66 -10 0 -5 5 -10 11 -10 5 0 7 6 3
13 -5 8 -4 9 4 2 14 -13 241 -10 422 6 156 13 329 18 366 11 15 -3 23 -10 20
-17 -5 -14 -10 -14 159 5 50 5 95 10 100 10 6 1 34 -4 64 -10 40 -9 61 -9 79
0 16 7 28 8 35 1 5 -5 34 -7 64 -4 35 4 62 1 78 -7 17 -9 45 -11 95 -6 38 3
70 3 70 -2 0 -4 23 -7 50 -6 28 2 50 -2 50 -7 0 -13 41 -11 70 4 17 9 35 11
55 5 17 -4 38 -5 49 -2 10 4 145 8 300 10 154 2 297 7 316 11 19 3 53 6 75 6
76 -2 260 -4 282 -3 12 0 25 5 28 10 3 6 16 5 31 -2 18 -8 28 -9 32 -1 15 23
77 45 133 46 32 1 59 5 59 10 0 12 28 8 43 -8 13 -12 15 -12 20 5 8 32 27 23
27 -12 0 -18 4 -39 9 -47 5 -8 9 21 10 74 1 48 4 92 7 96 7 12 44 11 44 0 0
-5 6 -11 14 -14 11 -4 13 6 11 51 -3 50 -6 58 -27 63 -22 7 -19 10 11 13 12 1
14 43 12 256 -3 298 -3 253 2 415 2 72 0 135 -5 142 -6 7 -6 19 0 30 5 10 6
36 4 58 -5 39 -6 216 -2 245 2 8 7 21 13 28 5 6 6 12 1 12 -15 0 -8 252 8 261
11 7 10 11 -1 18 -12 7 -12 13 -3 24 7 7 9 17 5 21 -12 11 -13 147 -2 168 7
12 6 18 -1 18 -6 0 -8 5 -4 11 4 7 8 51 8 98 1 47 5 92 10 99 4 7 5 25 2 40
-12 58 -16 145 -7 156 5 6 11 73 13 148 3 132 10 167 27 139 7 -11 11 -9 20 7
16 30 14 42 -9 42 -11 0 -20 -5 -20 -11 0 -5 -4 -8 -9 -5 -4 3 -9 43 -10 88
-2 103 -11 200 -21 213 -4 6 -5 19 -3 30 8 37 12 149 6 159 -10 16 -11 136 -1
136 5 0 6 6 1 13 -4 6 -8 32 -9 57 -1 25 -4 66 -7 93 -3 26 -1 47 4 47 5 0 4
10 -3 21 -11 18 -11 23 0 26 10 4 10 8 1 20 -10 12 -10 16 1 23 11 7 11 11 1
23 -8 11 -11 60 -10 166 1 93 -3 156 -9 164 -7 8 -9 45 -5 97 3 47 5 96 5 110
0 14 4 30 9 37 7 7 6 14 -1 18 -7 4 -9 23 -5 50 9 59 10 124 2 228 -5 59 -4
87 3 87 6 0 8 5 5 10 -8 13 -9 376 -1 389 3 5 0 12 -6 14 -10 4 -10 8 1 15 9
6 10 12 3 16 -6 4 -9 21 -7 39 6 40 6 153 1 232 -2 36 1 66 8 74 8 12 8 13 -1
7 -9 -5 -13 1 -13 23 0 16 5 33 10 36 12 7 13 58 3 69 -5 4 -9 37 -9 72 -1 35
-5 108 -9 162 -14 186 -15 276 -2 284 9 6 9 10 -2 17 -9 6 -10 14 -5 22 16 25
13 103 -5 123 -15 18 -15 19 0 13 13 -4 16 -1 12 14 -3 10 -9 19 -13 19 -5 0
-8 45 -8 100 0 57 -4 105 -10 113 -12 14 -32 253 -32 385 0 45 -1 82 -2 82 -2
0 -35 -6 -74 -14 -39 -7 -88 -13 -110 -12 -38 1 -39 2 -48 49 -13 64 -30 61
-23 -3z m-1614 -74 c-12 -10 -59 -15 -59 -6 0 5 14 10 32 10 17 0 29 -2 27 -4z
m-3309 -10 c0 -3 -4 -8 -10 -11 -5 -3 -10 -1 -10 4 0 6 5 11 10 11 6 0 10 -2
10 -4z m3187 -2 c-3 -3 -12 -4 -19 -1 -8 3 -5 6 6 6 11 1 17 -2 13 -5z m563
-14 c-62 -15 -196 -23 -185 -12 11 12 61 18 155 19 55 1 60 0 30 -7z m-740
-10 c0 -5 -17 -10 -37 -11 -170 -5 -209 -5 -218 0 -11 6 89 16 193 19 36 1 62
-2 62 -8z m1050 0 c0 -5 -4 -10 -10 -10 -5 0 -10 5 -10 10 0 6 5 10 10 10 6 0
10 -4 10 -10z m-4310 -4 c0 -3 -4 -8 -10 -11 -5 -3 -10 -1 -10 4 0 6 5 11 10
11 6 0 10 -2 10 -4z m2980 -6 c0 -4 -28 -8 -62 -9 -35 -1 -110 -3 -168 -6 -62
-3 -97 -1 -85 4 11 5 58 9 105 10 46 1 85 3 86 4 7 6 124 4 124 -3z m697 -7
c-20 -2 -52 -2 -70 0 -17 2 0 4 38 4 39 0 53 -2 32 -4z m510 1 c-3 -3 -12 -4
-19 -1 -8 3 -5 6 6 6 11 1 17 -2 13 -5z m-3287 -25 c0 -14 -16 -11 -29 5 -10
12 -8 13 8 9 12 -3 21 -9 21 -14z m1730 17 c0 -9 -30 -14 -35 -6 -4 6 3 10 14
10 12 0 21 -2 21 -4z m-770 -26 c0 -5 -7 -10 -15 -10 -8 0 -15 5 -15 10 0 6 7
10 15 10 8 0 15 -4 15 -10z m-3127 -7 c-7 -2 -19 -2 -25 0 -7 3 -2 5 12 5 14
0 19 -2 13 -5z m4230 -85 c12 -7 65 -18 117 -23 66 -7 94 -14 92 -23 -1 -7 10
-18 24 -24 22 -10 28 -10 38 3 8 11 20 13 46 8 19 -4 39 -4 45 2 5 6 2 9 -10
9 -19 1 -19 1 -2 11 9 5 22 7 27 4 18 -11 120 -15 120 -5 0 6 7 10 15 10 8 0
15 -7 15 -16 0 -11 6 -14 20 -9 12 4 20 2 20 -5 0 -8 9 -10 26 -6 19 5 24 4
18 -5 -5 -9 -2 -10 10 -6 10 4 40 0 67 -9 55 -18 62 -16 62 21 0 14 3 28 8 31
15 9 50 -6 43 -18 -4 -7 -2 -8 5 -4 6 4 19 2 27 -5 12 -10 12 -14 2 -20 -10
-7 -10 -11 0 -21 13 -13 17 -128 5 -128 -5 0 -8 -81 -8 -179 0 -168 1 -178 18
-170 9 6 17 6 16 2 -1 -4 1 -16 6 -26 8 -19 -21 -61 -35 -52 -10 6 -20 -20
-20 -50 0 -56 -36 -32 -101 68 l-32 48 6 105 c7 103 7 104 -16 104 -19 -1 -20
-2 -5 -11 18 -10 18 -10 2 -166 -3 -29 -10 -53 -15 -53 -5 0 -18 18 -29 41
-13 25 -38 51 -65 67 -44 27 -51 43 -46 102 1 10 -7 16 -19 16 -14 0 -19 -5
-15 -15 4 -11 2 -11 -8 -3 -8 7 -34 14 -58 17 -27 3 -62 18 -89 37 -136 96
-232 157 -262 167 -26 9 -34 17 -34 34 1 19 -4 22 -37 22 -34 0 -37 2 -37 28
0 27 22 38 35 17 9 -15 48 -13 41 3 -3 6 -9 20 -12 29 -4 10 -15 16 -28 15
-15 -1 -22 4 -24 21 -4 25 1 27 31 10z m-2866 -14 c-3 -3 -12 -4 -19 -1 -8 3
-5 6 6 6 11 1 17 -2 13 -5z m4942 -20 c8 5 10 -7 6 -41 -8 -68 -45 -484 -45
-500 0 -9 16 -13 53 -14 66 -1 111 -25 115 -63 3 -25 7 -28 33 -24 35 5 37
-18 4 -36 -11 -6 -35 -23 -53 -38 -18 -15 -42 -30 -55 -32 -47 -10 -178 -13
-183 -4 -3 5 -13 6 -23 2 -21 -9 -171 -13 -171 -4 0 4 17 12 38 18 45 14 102
48 102 61 0 6 -34 -7 -75 -28 -41 -22 -92 -42 -112 -46 -20 -4 -54 -15 -75
-26 -20 -10 -45 -19 -55 -19 -10 -1 -34 -9 -53 -19 l-35 -19 49 -7 c27 -4 102
-5 166 -2 64 3 123 1 131 -3 18 -10 84 -18 164 -19 90 -2 48 -18 -48 -19 -45
-1 -103 -4 -129 -6 -28 -3 -48 -1 -48 4 0 6 -9 10 -20 10 -11 0 -20 -4 -20
-10 0 -5 4 -10 9 -10 9 0 9 -13 -4 -170 -7 -85 -51 -522 -65 -650 -13 -111
-14 -105 15 -120 27 -15 51 -17 179 -19 44 0 77 -3 75 -6 -3 -2 -61 -9 -130
-14 -68 -5 -131 -12 -140 -16 -11 -4 -18 -33 -27 -113 -18 -158 -19 -151 26
-146 20 2 98 10 172 19 74 8 159 16 189 19 62 6 66 9 75 57 6 32 4 38 -16 44
-22 7 81 22 197 28 44 3 73 -16 57 -36 -13 -17 -22 -56 -13 -61 4 -3 7 -17 6
-33 0 -27 -2 -28 -80 -40 -69 -10 -440 -51 -617 -68 -39 -4 -83 1 -135 13 -43
11 -136 30 -207 43 -149 28 -155 32 -163 130 -5 54 -4 62 10 56 21 -8 30 21
22 73 -6 42 3 51 25 25 19 -23 35 -3 20 25 -9 17 -9 24 0 30 7 4 9 17 4 35 -6
25 -5 27 15 20 20 -6 22 -5 12 13 -14 25 -14 45 -2 37 22 -13 24 65 3 115 -16
37 -17 47 -6 43 19 -7 18 0 -8 55 -12 26 -21 52 -20 59 2 7 -7 32 -19 55 -12
24 -25 63 -30 88 -4 25 -11 59 -14 75 -5 24 -4 27 5 15 9 -12 10 -9 5 15 -18
82 -17 113 4 132 14 11 21 29 21 53 0 26 -3 31 -10 20 -8 -12 -10 -11 -10 7 0
12 6 24 13 27 9 5 9 7 -2 12 -9 4 -10 9 -2 13 16 10 26 71 12 71 -6 0 -10 -6
-8 -12 1 -10 -25 -13 -106 -14 -100 0 -108 1 -104 18 4 15 -1 18 -37 18 -32 0
-44 5 -55 22 -10 16 -10 23 -2 26 6 2 8 9 5 15 -5 8 -2 8 7 0 16 -16 59 -17
59 -2 0 5 5 7 12 3 8 -5 9 -2 5 9 -3 10 -3 17 1 17 4 0 8 24 9 53 2 28 7 65
11 82 l8 30 19 -22 c15 -18 22 -20 34 -10 12 9 13 9 7 0 -4 -7 1 -26 11 -43
13 -23 15 -32 5 -42 -16 -16 -15 -29 6 -54 23 -28 85 -44 76 -20 -8 21 29 22
46 1 14 -17 126 -22 115 -5 -3 6 1 10 10 10 9 0 13 -4 10 -10 -3 -6 5 -10 19
-10 14 0 28 4 31 10 3 5 0 7 -9 4 -15 -6 -17 18 -3 32 4 4 7 18 7 31 0 16 6
23 20 23 11 0 20 2 20 5 0 3 -9 14 -20 25 -11 11 -20 26 -20 33 0 8 9 22 20
32 11 10 20 30 20 44 0 25 34 126 49 146 4 6 14 33 21 60 16 64 53 165 61 165
3 0 47 -40 98 -89 50 -50 105 -96 121 -103 17 -7 30 -19 30 -27 0 -9 8 -11 27
-7 17 5 29 3 35 -6 6 -9 8 -3 4 17 -5 22 -4 26 4 15 5 -8 9 -33 8 -55 -1 -22
5 -50 12 -62 24 -37 95 -58 105 -30 5 13 55 504 55 541 0 16 2 18 9 7 5 -7 14
-10 20 -7z m-4855 -16 c-5 -8 2 -9 25 -5 27 6 34 4 38 -13 3 -11 9 -20 12 -20
4 0 8 -6 9 -12 1 -7 6 -31 11 -53 9 -40 9 -40 10 -7 1 25 7 35 27 42 22 9 24
13 14 25 -11 13 -10 14 4 9 9 -3 16 -13 16 -22 0 -8 6 -23 14 -31 14 -16 29
-111 17 -111 -15 1 -33 19 -27 28 3 5 -3 12 -14 15 -17 4 -19 1 -14 -20 4 -16
2 -28 -7 -34 -11 -7 -10 -9 4 -9 9 0 17 -4 17 -9 0 -5 9 -11 19 -14 14 -3 18
-1 14 9 -3 8 0 14 7 14 9 0 11 -14 7 -50 -3 -27 -3 -50 1 -50 4 0 6 -29 5 -65
-1 -36 1 -65 5 -65 4 0 6 -34 4 -76 l-4 -77 37 7 c27 5 42 3 55 -9 10 -9 21
-15 26 -13 5 1 27 -7 49 -19 35 -18 49 -19 120 -12 44 4 81 6 83 4 2 -2 -16
-9 -39 -17 l-44 -12 33 -4 c39 -4 39 -8 5 -44 -19 -20 -36 -28 -62 -28 -35 0
-35 0 -13 -16 12 -8 22 -19 22 -25 0 -5 -72 -9 -175 -9 -160 0 -175 -2 -175
-17 -1 -10 0 -99 0 -198 l1 -181 -57 -104 c-31 -58 -60 -109 -64 -115 -4 -5
-19 -42 -34 -82 -14 -40 -38 -96 -52 -125 -15 -29 -31 -73 -35 -98 -16 -93
-29 -144 -41 -151 -6 -4 -97 -8 -201 -9 -105 0 -194 -3 -198 -6 -12 -7 31 -74
47 -74 8 0 17 -7 20 -15 4 -8 14 -15 23 -15 14 -1 14 -2 -2 -11 -9 -5 -21 -8
-25 -5 -4 2 -14 1 -22 -5 -11 -6 -4 -9 23 -9 24 0 36 -4 35 -12 -2 -9 12 -14
40 -16 28 -2 42 -8 42 -18 0 -8 5 -14 11 -14 5 0 8 4 5 9 -3 5 1 12 10 15 26
10 64 7 64 -5 0 -6 -9 -9 -19 -6 -10 2 -25 1 -32 -4 -10 -6 -5 -9 16 -9 24 0
31 -5 32 -20 1 -14 -4 -20 -20 -20 -40 0 4 -20 48 -21 35 -1 37 -2 15 -9 l-25
-8 25 -2 c14 -1 28 -2 32 -1 8 1 3 -53 -6 -68 -3 -5 1 -26 10 -46 8 -21 13
-43 10 -50 -2 -7 0 -17 6 -23 10 -10 12 -61 5 -107 -6 -34 -18 -55 -34 -55 -8
0 -11 -4 -8 -10 10 -17 25 -11 35 13 8 21 9 21 9 -5 1 -19 -4 -28 -14 -28 -8
0 -15 -5 -15 -11 0 -6 7 -9 15 -5 11 4 15 -1 15 -19 0 -17 -6 -25 -17 -26 -17
-1 -17 -2 0 -6 24 -6 21 -23 -5 -24 l-23 -2 23 -4 c23 -5 23 -7 24 -112 0 -19
6 -49 14 -66 10 -24 10 -35 2 -43 -9 -9 -9 -12 -1 -12 13 0 28 37 24 61 -1 9
6 19 15 23 14 5 15 1 10 -39 -6 -38 -5 -44 8 -39 9 3 13 10 10 15 -3 5 -1 9 5
9 6 0 13 15 16 33 5 26 11 32 31 32 20 0 24 -5 25 -30 1 -17 3 -22 6 -12 2 9
9 17 14 17 5 0 9 6 9 14 0 16 27 29 42 20 6 -4 7 7 3 29 -4 20 -3 43 3 53 6
10 6 29 2 46 -7 22 -5 30 8 37 22 11 51 2 31 -9 -10 -7 -10 -11 0 -24 12 -14
10 -65 -5 -118 -4 -14 1 -18 20 -18 15 0 30 -8 36 -20 13 -25 7 -870 -6 -891
-5 -8 -7 -129 -5 -269 2 -201 6 -258 17 -271 8 -8 14 -23 14 -32 0 -11 5 -14
15 -11 11 5 14 15 10 38 -6 29 -3 33 30 49 36 17 70 24 49 9 -9 -6 -44 -69
-44 -79 0 -3 13 -2 29 2 17 3 32 2 36 -4 3 -6 19 -11 34 -11 20 0 34 -8 45
-25 14 -21 20 -23 36 -15 10 5 34 10 54 10 41 0 77 -37 69 -71 -7 -25 -55 -62
-119 -91 l-49 -22 35 -8 c19 -4 40 -5 47 -3 22 8 36 -22 25 -55 -14 -38 4 -41
20 -2 7 15 14 29 15 31 2 3 16 -8 31 -25 l27 -29 -39 -35 c-21 -19 -55 -57
-76 -85 -84 -116 -200 -351 -213 -432 -4 -24 -18 -68 -32 -99 -25 -57 -30 -58
-67 -26 -9 7 -21 11 -27 8 -14 -9 -2 -37 26 -61 l25 -20 -27 -75 c-55 -153
-85 -259 -110 -395 -21 -112 -66 -274 -81 -294 -4 -5 -22 15 -88 96 -72 90
-88 99 -33 20 16 -24 17 -30 5 -45 -12 -15 -11 -16 4 -4 15 12 21 10 43 -15
56 -62 59 -77 39 -170 -13 -60 -21 -78 -24 -61 -3 12 -10 23 -15 23 -6 1 -20
7 -32 15 -16 11 -19 17 -11 27 7 9 7 13 0 13 -6 0 -17 -10 -23 -22 -8 -14 -14
-18 -17 -10 -2 6 -16 12 -30 11 -26 -1 -26 -1 -3 -8 20 -5 17 -8 -24 -19 -32
-8 -52 -9 -58 -3 -5 5 -24 8 -41 6 -27 -4 -25 -3 9 9 22 8 49 15 61 15 11 1
29 8 40 16 17 14 14 15 -36 10 l-55 -5 40 14 c22 8 50 15 62 15 12 1 25 6 28
11 4 7 -7 9 -32 5 -21 -3 -74 -10 -118 -17 -44 -6 -103 -11 -132 -11 -40 1
-50 -2 -46 -13 3 -8 0 -14 -6 -14 -6 0 -11 5 -11 10 0 12 -100 7 -120 -5 -20
-13 -21 1 0 20 11 10 20 13 20 7 0 -7 7 -12 15 -12 8 0 15 7 15 15 0 13 -31
21 -63 16 -4 0 -7 3 -7 8 0 12 66 4 98 -12 19 -9 36 -7 88 12 35 13 71 20 80
17 8 -3 12 -2 9 4 -3 6 -2 10 2 10 14 0 125 72 119 77 -2 3 -24 -4 -49 -15
-24 -11 -69 -23 -98 -27 -30 -4 -59 -11 -64 -16 -17 -13 -169 -24 -161 -11 3
6 2 13 -4 17 -18 11 0 25 33 26 18 0 55 9 82 19 55 20 44 25 -24 9 -24 -5 -68
-12 -99 -14 -31 -2 -68 -7 -83 -10 -18 -4 -32 -1 -43 11 -12 12 -28 15 -54 11
-35 -4 -35 -4 -9 6 31 12 36 26 10 29 -10 0 -22 2 -28 3 -5 2 -14 3 -20 4 -18
2 19 21 43 21 12 0 22 5 22 10 0 13 -2 12 -37 -1 -15 -6 -50 -12 -77 -14 -44
-2 -48 -1 -31 11 10 8 15 17 10 21 -4 5 -10 2 -12 -4 -6 -18 -16 -16 -40 7
-21 19 -21 19 -46 -4 -13 -13 -35 -22 -48 -21 -13 1 -45 -7 -72 -17 -28 -11
-56 -17 -64 -14 -8 3 -11 1 -8 -4 3 -6 -4 -10 -16 -10 -21 0 -21 1 -6 18 21
23 21 41 2 66 -8 11 -15 32 -15 47 0 15 -6 29 -12 32 -10 4 -10 7 -1 18 19 20
16 39 -7 39 -11 0 -20 5 -20 10 0 6 6 10 14 10 8 0 16 7 20 15 11 29 76 15 76
-16 0 -10 5 -19 11 -19 6 0 9 -7 5 -15 -3 -10 2 -17 17 -20 66 -16 166 -38
194 -42 18 -3 31 -8 29 -12 -2 -3 14 -5 37 -2 43 4 62 18 115 87 25 32 29 43
18 47 -15 6 -16 23 -3 45 5 7 3 12 -3 12 -6 0 -9 4 -6 9 3 4 67 23 143 40 76
18 152 40 170 48 17 8 37 12 44 8 8 -5 10 -4 5 3 -4 7 -1 12 6 12 10 0 10 2 0
9 -8 4 -14 12 -15 17 -1 5 -5 8 -9 7 -4 -2 -3 8 2 22 8 20 6 25 -6 25 -9 0
-14 -6 -11 -13 3 -9 -10 -13 -52 -13 -31 0 -101 -6 -156 -12 -174 -22 -182
-22 -85 -2 236 48 282 61 270 75 -8 10 -7 14 7 18 11 3 8 5 -10 6 -17 1 -26 5
-22 11 4 6 14 10 23 9 59 -5 73 20 45 86 l-18 44 -95 -5 c-69 -3 -89 -2 -72 6
26 11 20 35 -7 26 -9 -3 -3 5 13 18 16 13 26 30 24 37 -3 8 -1 23 5 34 9 17 8
18 -5 8 -8 -7 -18 -9 -22 -5 -4 4 -13 0 -19 -8 -9 -12 -35 -15 -114 -15 -57 0
-103 4 -103 9 0 4 -16 6 -35 4 -28 -3 -35 -1 -33 11 4 18 58 28 58 12 0 -14
77 -14 86 0 4 7 -3 10 -17 9 -46 -4 -54 1 -19 13 31 11 37 10 51 -5 18 -20 46
-23 69 -8 11 7 6 8 -17 4 -25 -5 -33 -2 -42 14 -16 30 -14 32 20 32 26 0 29 3
24 20 -4 14 -2 20 8 20 8 0 35 3 59 6 l46 6 37 -67 c36 -63 39 -67 68 -61 16
3 50 6 75 6 l45 0 -7 71 c-15 144 -84 505 -95 493 -3 -3 -6 -9 -6 -12 -1 -4
-4 -16 -8 -27 -8 -23 -13 -50 -27 -149 -10 -73 -29 -113 -22 -48 5 53 41 284
48 305 4 12 0 17 -13 18 -12 0 -14 2 -4 6 29 12 50 44 55 82 4 42 -10 69 -16
29 -2 -13 -1 65 0 172 2 107 7 197 12 200 4 3 10 43 12 89 3 58 9 86 18 89 8
3 0 12 -20 22 -21 11 -37 29 -45 53 -7 22 -9 37 -3 37 5 0 8 5 6 11 -2 6 -7
10 -12 9 -5 -1 -12 3 -15 8 -3 5 -47 35 -98 66 -99 61 -132 91 -62 56 24 -12
38 -16 31 -9 -6 7 -12 22 -12 33 0 11 -10 31 -22 45 l-23 24 27 -19 c14 -10
29 -30 32 -44 9 -37 95 -99 129 -93 l27 5 0 124 c0 103 -3 126 -15 131 -23 8
-28 -2 -14 -26 7 -11 11 -22 8 -25 -9 -10 -48 6 -54 21 -4 13 -3 14 10 3 13
-11 15 -8 15 19 0 17 -4 31 -10 31 -5 0 -10 7 -10 15 0 18 29 9 47 -14 6 -9
15 -12 20 -8 4 5 0 14 -9 21 -10 7 -15 15 -13 18 3 3 8 21 10 40 4 30 1 37
-20 46 -14 6 -25 8 -25 3 0 -5 10 -12 23 -16 19 -6 19 -8 5 -12 -10 -2 -18 -9
-18 -15 0 -5 7 -8 15 -4 8 3 15 1 15 -4 0 -6 -5 -10 -11 -10 -6 0 -9 -7 -5
-15 4 -12 2 -13 -12 -4 -13 8 -18 23 -17 53 1 38 3 41 28 39 15 -1 27 2 27 8
0 5 -6 9 -14 9 -8 0 -22 7 -30 16 -9 8 -16 11 -16 5 0 -6 -4 -11 -9 -11 -5 0
-7 9 -4 20 3 11 9 17 14 14 5 -3 9 -3 9 1 0 3 -15 15 -32 26 -18 12 -25 19
-15 15 9 -3 17 -1 17 5 0 5 14 2 30 -6 17 -9 28 -20 25 -25 -3 -5 -1 -11 5
-15 6 -4 7 -11 4 -17 -4 -7 -2 -8 4 -4 14 8 16 139 5 340 l-6 128 -91 60 c-50
33 -81 57 -68 54 12 -4 22 -3 22 2 0 5 -10 13 -22 16 -22 7 -22 7 -3 16 11 5
15 9 9 9 -6 1 -10 11 -10 24 1 15 -4 22 -16 21 -9 -1 -19 4 -22 12 -3 9 0 11
11 7 11 -4 14 -2 9 5 -4 7 -17 12 -30 12 -13 0 -23 6 -23 14 0 9 6 12 16 8 13
-5 14 -3 3 10 -7 9 -11 21 -10 28 2 7 -2 14 -9 17 -7 2 -13 -7 -15 -23 -2 -15
-10 -29 -18 -31 -13 -4 -13 -3 0 6 8 6 10 11 4 11 -7 0 -11 19 -10 49 0 27 -2
47 -5 45 -10 -6 -15 15 -18 66 -1 24 -5 47 -9 50 -12 9 -10 90 2 83 6 -4 2 3
-8 15 -25 28 -28 24 -16 -19 13 -43 12 -58 0 -39 -8 11 -9 7 -4 -15 3 -16 7
-35 9 -42 2 -7 0 -15 -5 -18 -5 -3 -7 -12 -4 -20 4 -10 0 -12 -15 -8 -12 3
-17 11 -14 19 3 9 -2 14 -17 14 -18 0 -21 5 -19 34 2 19 -3 41 -11 51 -12 15
-12 19 4 30 17 13 17 14 -1 24 -11 7 -14 14 -8 18 15 12 15 43 -1 43 -8 0 -14
7 -14 16 0 10 6 14 15 10 22 -8 18 7 -5 22 -25 15 -27 42 -2 36 21 -5 50 12
39 23 -5 4 -12 1 -17 -7 -5 -8 -12 -11 -16 -7 -4 3 -1 13 5 21 8 10 9 16 1 21
-6 3 -7 12 -3 18 4 7 6 20 5 30 -2 10 1 24 8 31 8 10 7 15 -5 20 -8 3 -15 16
-15 30 0 13 -6 26 -12 29 -10 4 -10 7 0 18 15 16 16 33 1 23 -6 -4 -9 1 -8 12
2 11 0 25 -5 33 -6 10 -5 12 2 7 15 -9 16 16 1 31 -9 9 -5 11 15 9 14 -2 26 1
26 5 0 5 -9 9 -21 9 -14 0 -19 5 -16 14 4 10 1 13 -8 9 -19 -7 -34 -61 -25
-93 3 -14 4 -60 1 -103 -4 -44 -3 -81 1 -84 5 -2 8 -12 8 -23 0 -10 7 -20 15
-24 8 -3 15 -10 15 -15 0 -6 -7 -8 -15 -5 -11 5 -15 -1 -15 -24 0 -17 5 -34
10 -37 6 -4 8 -16 5 -26 -4 -11 -1 -27 6 -35 9 -11 9 -18 2 -22 -14 -9 -14
-80 -1 -88 6 -4 5 -10 -3 -15 -11 -7 -11 -11 -2 -17 13 -8 13 -29 0 -49 -5 -7
-4 -13 0 -13 7 0 10 -163 4 -177 -1 -1 -23 11 -51 27 l-50 29 0 -33 c0 -28 6
-38 35 -56 44 -27 44 -40 0 -40 -30 0 -37 5 -49 33 -7 18 -26 41 -40 51 -26
17 -27 18 -9 31 10 8 26 15 36 15 15 0 17 7 12 48 -3 26 -7 87 -10 136 -2 49
-6 90 -8 92 -2 2 -25 8 -51 13 -26 5 -48 10 -50 12 -2 2 -6 30 -9 63 -5 54 -5
58 14 53 12 -3 22 0 26 9 3 8 13 14 23 14 35 0 38 20 30 165 -5 77 -14 219
-20 315 -11 197 -26 451 -35 615 -4 61 -9 118 -11 127 -5 17 5 17 135 12 l141
-7 0 44 c0 93 7 89 -159 91 l-146 2 149 6 150 5 -3 111 -2 111 188 7 c177 7
189 9 205 29 10 13 18 16 18 9 0 -7 5 -10 10 -7 6 4 7 11 4 17 -4 6 3 5 15 -2
14 -7 27 -8 34 -2 17 12 79 14 97 2 10 -6 21 -4 34 8 18 16 19 16 13 -1 -5
-14 -2 -16 18 -11 17 4 25 2 26 -7 0 -8 4 -6 8 5 7 17 8 17 24 2 11 -11 24
-15 42 -10 23 6 25 11 27 68 2 108 6 138 16 148 6 6 7 22 1 41 -10 37 -1 50
32 45 18 -2 25 -10 27 -33 2 -16 11 -34 20 -41 19 -14 52 -7 52 12 0 8 5 14
10 14 6 0 10 -14 10 -31 0 -37 25 -35 26 2 0 14 4 30 8 37 10 17 7 20 -29 22
-55 4 -67 1 -61 -15 3 -8 1 -15 -4 -15 -6 0 -10 8 -10 19 0 12 11 22 33 29 17
5 33 10 35 11 2 1 0 -4 -4 -11z m126 -24 c0 -8 -4 -14 -10 -14 -5 0 -10 9 -10
21 0 11 5 17 10 14 6 -3 10 -13 10 -21z m-1691 -56 c-1 -68 -6 -61 -11 15 -2
26 0 47 4 47 5 0 7 -28 7 -62z m6608 -80 c-3 -8 -6 -5 -6 6 -1 11 2 17 5 13 3
-3 4 -12 1 -19z m-1229 -271 c2 -11 -3 -17 -16 -17 -15 0 -19 5 -15 20 6 24
26 21 31 -3z m-8 -37 c0 -5 -4 -10 -10 -10 -5 0 -10 5 -10 10 0 6 5 10 10 10
6 0 10 -4 10 -10z m1500 0 c0 -5 -5 -10 -11 -10 -5 0 -7 5 -4 10 3 6 8 10 11
10 2 0 4 -4 4 -10z m-1494 -35 c-16 -17 -36 -20 -36 -6 0 8 17 16 43 20 5 0 2
-6 -7 -14z m-5356 -5 c0 -5 -2 -10 -4 -10 -3 0 -8 5 -11 10 -3 6 -1 10 4 10 6
0 11 -4 11 -10z m6850 0 c0 -5 -2 -10 -4 -10 -3 0 -8 5 -11 10 -3 6 -1 10 4
10 6 0 11 -4 11 -10z m-1123 -43 c1 -13 -3 -17 -13 -13 -9 3 -18 6 -20 6 -2 0
-4 6 -4 13 0 21 36 15 37 -6z m-192 3 c4 -6 -13 -10 -44 -10 -28 0 -51 5 -51
10 0 6 20 10 44 10 25 0 48 -4 51 -10z m105 -5 c-12 -15 -30 -12 -30 6 0 5 10
9 21 9 18 0 19 -2 9 -15z m1210 11 c0 -3 -4 -8 -10 -11 -5 -3 -10 -1 -10 4 0
6 5 11 10 11 6 0 10 -2 10 -4z m-6820 -182 c0 -8 -4 -12 -10 -9 -5 3 -10 10
-10 16 0 5 5 9 10 9 6 0 10 -7 10 -16z m5155 -4 c3 -5 1 -10 -4 -10 -6 0 -11
5 -11 10 0 6 2 10 4 10 3 0 8 -4 11 -10z m1461 -25 c8 10 14 15 15 9 1 -14 6
-36 19 -83 8 -31 8 -47 1 -54 -8 -8 -11 -7 -11 2 0 7 -4 9 -10 6 -5 -3 -10 -3
-10 2 0 12 -58 43 -80 43 -32 0 -31 17 0 24 24 4 32 12 37 37 5 27 7 29 16 13
9 -16 10 -16 23 1z m-246 -119 c0 -3 -4 -8 -10 -11 -5 -3 -10 -1 -10 4 0 6 5
11 10 11 6 0 10 -2 10 -4z m-4673 -33 c-9 -9 -20 -13 -24 -9 -4 4 -1 11 7 16
25 16 35 11 17 -7z m3709 -255 c-3 -13 -6 -27 -7 -33 -1 -12 -17 25 -18 43 -1
6 6 12 15 12 12 0 15 -6 10 -22z m1400 -5 c-10 -10 -19 5 -10 18 6 11 8 11 12
0 2 -7 1 -15 -2 -18z m6 -103 c7 0 6 -5 -2 -15 -6 -8 -9 -24 -5 -37 4 -15 3
-18 -3 -10 -4 7 -8 38 -9 70 0 31 2 42 4 25 3 -18 9 -33 15 -33z m8 -184 c0
-3 -4 -8 -10 -11 -5 -3 -10 -1 -10 4 0 6 5 11 10 11 6 0 10 -2 10 -4z m-3 -58
c-3 -8 -6 -5 -6 6 -1 11 2 17 5 13 3 -3 4 -12 1 -19z m-320 -174 c-3 -3 -12
-4 -19 -1 -8 3 -5 6 6 6 11 1 17 -2 13 -5z m-337 -26 c0 -6 -7 -7 -16 -4 -9 3
-22 6 -30 6 -8 0 -14 4 -14 8 0 5 14 7 30 4 17 -2 30 -9 30 -14z m460 -9 c26
-15 -22 -10 -55 6 l-30 14 35 -6 c19 -3 42 -9 50 -14z m-325 -18 c22 -5 87
-23 145 -40 99 -28 133 -32 100 -11 -13 8 -12 10 3 10 9 0 22 -11 28 -24 6
-13 22 -29 36 -35 35 -16 20 -32 -20 -20 -17 5 -32 9 -33 9 -1 0 -4 -9 -7 -20
-5 -19 -6 -19 -46 3 -37 20 -38 23 -18 28 20 5 18 7 -15 22 -21 9 -85 31 -143
49 -58 18 -105 37 -105 41 0 5 8 6 18 3 9 -3 35 -10 57 -15z m-5025 -171 c10
-18 8 -20 -17 -19 -18 1 -22 3 -10 6 11 3 16 11 13 19 -8 21 2 17 14 -6z
m-132 3 c-10 -2 -28 -2 -40 0 -13 2 -5 4 17 4 22 1 32 -1 23 -4z m37 -23 c16
-7 12 -9 -18 -9 -23 -1 -36 3 -32 9 7 12 23 12 50 0z m141 -16 c-4 -9 -9 -15
-11 -12 -3 3 -3 13 1 22 4 9 9 15 11 12 3 -3 3 -13 -1 -22z m-989 10 c-3 -3
-12 -4 -19 -1 -8 3 -5 6 6 6 11 1 17 -2 13 -5z m937 -29 c-4 -8 -8 -15 -10
-15 -2 0 -4 7 -4 15 0 8 4 15 10 15 5 0 7 -7 4 -15z m-194 -5 c0 -5 -4 -10
-10 -10 -5 0 -10 5 -10 10 0 6 5 10 10 10 6 0 10 -4 10 -10z m84 -2 c-5 -7 0
-9 14 -6 12 4 22 2 22 -3 0 -9 -3 -10 -59 -15 -24 -2 -30 0 -20 7 13 8 6 13
-14 10 -5 -1 -6 2 -4 6 3 5 19 9 36 10 21 2 29 -1 25 -9z m80 -3 c-7 -16 -24
-21 -24 -6 0 8 7 13 27 20 1 1 0 -6 -3 -14z m-64 -45 c0 -5 -4 -10 -10 -10 -5
0 -10 5 -10 10 0 6 5 10 10 10 6 0 10 -4 10 -10z m-57 -7 c-7 -2 -19 -2 -25 0
-7 3 -2 5 12 5 14 0 19 -2 13 -5z m170 -44 c17 -19 17 -20 1 -17 -9 1 -18 11
-20 21 -3 22 -2 21 19 -4z m17 -33 c0 -2 -9 -6 -20 -9 -11 -3 -18 -1 -14 4 5
9 34 13 34 5z m5349 -72 c11 -10 -8 -13 -42 -7 -20 3 -34 9 -31 14 4 7 63 2
73 -7z m-1145 -33 c23 -9 26 -14 16 -26 -10 -12 -9 -15 5 -15 12 0 15 -4 8
-12 -5 -7 -9 -22 -8 -33 1 -11 2 -30 3 -42 1 -12 11 -24 22 -28 23 -7 23 -9 8
-195 -5 -69 -14 -132 -19 -140 -5 -10 -8 -11 -9 -2 0 6 -3 12 -7 12 -12 0 -7
-78 6 -94 7 -8 11 -35 9 -62 -3 -48 -3 -48 -51 -63 -45 -14 -50 -14 -58 2 -10
17 -45 23 -65 9 -11 -7 -34 -46 -34 -57 0 -4 14 -4 30 0 17 4 30 2 30 -3 0
-17 54 -21 82 -6 15 8 35 14 45 14 39 0 -35 -39 -139 -74 -26 -8 -22 -26 6
-26 34 0 39 -13 24 -62 -15 -54 -21 -58 -67 -45 -47 14 -61 25 -54 43 6 17 44
19 61 2 14 -14 17 -11 26 20 6 19 4 22 -21 23 -15 1 -39 3 -53 4 -14 1 -27 0
-30 -4 -3 -3 -14 -11 -25 -17 -11 -6 -23 -24 -27 -40 -3 -16 -16 -72 -28 -124
-48 -210 -94 -303 -224 -458 -52 -62 -108 -135 -125 -162 -39 -63 -64 -79
-144 -91 -87 -14 -127 -3 -149 40 l-17 33 -6 -35 c-8 -40 0 -61 21 -53 8 3 33
2 57 -3 24 -4 53 -4 64 0 36 13 49 -11 78 -146 25 -121 33 -155 39 -180 1 -5
7 -20 14 -32 16 -29 15 -36 -4 -29 -9 3 -12 2 -9 -5 4 -5 15 -7 26 -4 18 6 24
-2 20 -32 -1 -7 3 -13 10 -13 6 0 9 -7 5 -15 -3 -10 1 -15 12 -16 11 0 12 -2
4 -6 -10 -4 -10 -8 -1 -19 21 -25 13 -190 -11 -219 -5 -6 -7 -15 -3 -19 4 -4
2 -11 -5 -15 -13 -8 -20 -28 -21 -62 -1 -8 -10 -25 -21 -37 -12 -12 -18 -22
-15 -22 3 0 0 -10 -7 -22 -7 -13 -13 -30 -13 -38 0 -8 -10 -19 -22 -25 -13 -5
-24 -22 -28 -41 -3 -20 -13 -35 -25 -39 -11 -4 -20 -12 -20 -19 0 -7 -11 -19
-25 -26 -14 -8 -24 -19 -21 -26 5 -13 -50 -28 -66 -18 -5 3 -16 -2 -23 -12 -8
-11 -15 -14 -15 -9 0 6 -5 3 -11 -5 -9 -12 -12 -13 -16 -1 -5 11 -7 11 -14 0
-6 -10 -9 -10 -9 -2 0 8 -7 10 -17 6 -30 -11 6 19 50 42 20 11 37 24 37 28 0
5 -7 4 -16 -4 -10 -8 -18 -9 -22 -3 -14 21 -44 25 -58 7 -11 -15 -13 -15 -14
-3 0 12 -4 10 -15 -4 -13 -17 -15 -18 -15 -3 0 16 -8 20 -40 18 -10 0 -11 1
-2 5 17 8 15 24 -3 24 -8 0 -15 5 -15 11 0 5 5 7 10 4 6 -3 10 -1 10 5 0 6 5
8 12 4 8 -5 9 -2 5 10 -4 10 -7 22 -7 27 0 5 -7 9 -15 9 -8 0 -15 -7 -15 -16
0 -8 -5 -12 -11 -8 -8 4 -9 -1 -5 -17 3 -13 3 -18 0 -11 -3 6 -13 12 -22 13
-11 0 -12 2 -4 6 6 2 12 11 12 19 0 9 5 12 10 9 6 -3 10 0 10 8 0 8 16 31 35
51 19 21 35 43 35 49 0 7 -7 4 -14 -5 -7 -10 -18 -18 -24 -18 -6 0 -13 -6 -15
-12 -4 -10 -8 -9 -16 2 -8 11 -6 17 7 22 15 6 14 8 -5 14 -28 8 -28 11 -2 53
11 18 17 36 14 39 -3 4 -10 0 -15 -8 -14 -22 -12 -3 2 23 17 32 18 60 1 46 -8
-7 -13 -8 -13 -1 0 5 6 15 14 22 8 6 12 18 9 26 -3 8 1 14 7 14 10 0 9 5 -2
18 -9 9 -18 26 -22 38 -7 23 -32 28 -40 7 -3 -7 -12 -13 -21 -13 -8 0 -15 -4
-15 -8 0 -10 -65 -42 -84 -42 -8 0 -19 -6 -25 -14 -6 -7 -26 -13 -44 -11 -17
1 -36 -1 -42 -4 -21 -11 -45 -10 -45 2 0 8 -4 7 -10 -3 -9 -13 -10 -13 -10 0
-1 8 -8 2 -16 -13 -9 -16 -18 -26 -22 -23 -3 4 0 12 6 18 17 17 16 44 -1 29
-8 -6 -17 -8 -20 -4 -11 10 -38 -19 -33 -34 4 -9 1 -11 -5 -7 -6 4 -15 0 -20
-7 -7 -11 -9 -11 -9 2 0 9 -7 19 -15 23 -8 3 -15 0 -15 -7 0 -7 -9 -13 -20
-14 -11 -1 -20 2 -20 6 0 4 -13 6 -30 3 -16 -2 -30 -9 -30 -15 0 -8 -3 -8 -11
0 -14 14 -2 36 13 27 7 -5 8 -2 4 5 -5 7 -14 10 -21 7 -8 -3 -20 13 -31 40
l-19 45 -49 -6 c-38 -6 -47 -4 -41 5 5 8 4 11 -2 7 -13 -8 20 -77 42 -90 11
-6 12 -12 3 -26 -9 -15 -16 -17 -45 -8 -21 7 -32 15 -29 23 3 8 1 16 -4 19 -5
3 -10 -3 -13 -12 -4 -17 -4 -17 -12 1 -5 11 -3 21 5 26 8 5 10 15 5 26 -6 15
-10 10 -21 -26 -17 -54 -16 -53 -4 -45 5 3 19 0 31 -8 22 -16 11 -31 -15 -21
-11 4 -19 -2 -25 -19 -11 -28 -41 -43 -52 -26 -5 9 -12 8 -24 -4 -9 -10 -22
-17 -28 -17 -7 0 -3 8 8 16 20 15 20 16 0 12 -12 -2 -20 3 -20 12 0 8 -10 16
-22 18 -13 2 -23 -2 -23 -8 0 -7 7 -9 16 -6 8 3 12 2 9 -4 -3 -6 -13 -10 -22
-10 -11 0 -14 6 -8 27 5 23 4 25 -9 14 -8 -7 -20 -10 -26 -6 -6 4 -18 1 -26
-6 -8 -6 -17 -9 -21 -6 -3 4 2 9 11 13 9 3 16 14 16 24 0 10 6 21 13 23 6 3
-2 6 -19 6 -32 1 -60 22 -47 35 4 4 0 4 -10 0 -13 -5 -16 -2 -11 9 4 11 -2 18
-19 22 -18 5 -23 12 -20 25 4 14 -2 21 -20 25 -17 5 -24 12 -20 21 6 16 41 18
79 4 22 -9 29 -7 45 11 15 17 19 19 19 6 0 -9 -4 -19 -10 -22 -16 -10 -12 -25
8 -25 14 0 15 2 2 10 -10 6 -11 10 -2 10 6 0 12 7 12 16 0 10 6 13 18 10 9 -3
33 4 52 16 l35 22 -36 6 c-34 6 -96 50 -71 50 8 0 9 11 5 32 -6 29 -5 31 18
24 13 -4 33 -9 43 -11 10 -2 28 -14 39 -26 11 -12 27 -19 38 -16 13 4 19 0 20
-11 0 -13 3 -11 9 4 13 34 32 41 20 8 -8 -20 -8 -29 1 -35 6 -4 8 -12 5 -18
-11 -17 21 -13 39 5 9 9 19 13 23 9 4 -3 -1 -13 -11 -20 -10 -7 -15 -15 -10
-18 10 -6 44 18 42 29 -5 27 2 46 15 41 8 -3 17 -1 20 6 2 7 5 2 5 -9 1 -16 7
-21 26 -21 14 0 25 3 25 8 0 5 8 6 18 2 14 -5 14 -3 -3 11 -20 17 -20 17 3 13
12 -3 22 -3 22 0 0 9 -45 42 -57 43 -7 0 -13 10 -13 23 -1 20 -2 20 -11 4 -6
-9 -14 -15 -20 -12 -5 4 -14 -5 -21 -19 -11 -26 -28 -35 -28 -16 0 6 5 10 10
10 6 0 10 5 10 11 0 6 -7 8 -17 4 -12 -4 -14 -3 -8 3 6 6 19 12 29 14 27 4 33
28 7 28 -12 0 -21 4 -21 10 0 5 -7 7 -15 4 -8 -4 -15 -3 -15 1 0 11 27 34 34
28 3 -4 6 0 6 7 0 10 3 11 11 3 8 -8 18 -8 35 -1 34 16 30 31 -6 26 -22 -3
-29 -1 -26 8 3 9 -6 11 -36 8 -22 -3 -38 -1 -35 3 3 5 -4 10 -16 10 -16 2 -18
0 -8 -7 9 -5 1 -8 -25 -7 -21 1 -50 -2 -63 -7 -15 -5 -21 -5 -17 2 4 6 -2 8
-14 5 -31 -8 -24 -18 30 -37 28 -10 50 -23 50 -28 0 -7 -5 -6 -14 1 -10 9 -16
8 -26 -4 -12 -15 -35 -11 -25 5 8 13 -16 25 -42 21 -24 -3 -32 14 -10 22 6 2
9 8 5 12 -4 4 -17 0 -30 -9 -28 -20 -44 -21 -28 -1 10 12 8 18 -6 32 -15 16
-17 16 -12 1 8 -20 -30 -32 -50 -16 -12 10 -11 14 5 25 15 12 16 15 3 23 -18
12 -30 13 -30 2 0 -4 -9 -8 -20 -9 -11 -1 -20 3 -20 8 0 6 -7 17 -15 25 -20
21 -19 53 3 61 40 14 44 25 18 47 -14 12 -28 34 -32 50 -6 27 -5 29 20 24 14
-3 26 -1 26 4 0 6 -16 8 -36 6 -35 -4 -36 -3 -30 24 4 20 1 28 -8 28 -8 0 -17
7 -20 16 -4 12 -1 14 13 9 15 -5 18 -2 14 13 -3 14 -11 18 -24 15 -10 -3 -19
0 -19 6 0 6 5 11 11 11 5 0 7 5 4 10 -3 6 -1 10 4 10 6 0 11 7 11 16 0 8 -4
12 -10 9 -16 -10 -37 17 -32 42 6 32 21 39 17 8 -1 -14 2 -28 6 -31 5 -3 9 2
9 11 0 9 4 14 8 11 4 -2 14 -1 22 5 10 6 11 9 3 9 -7 0 -13 7 -13 15 0 8 -3
14 -7 13 -5 -1 -19 2 -32 6 -16 6 -26 4 -32 -5 -6 -10 -9 -6 -9 14 0 15 5 27
10 27 6 0 10 8 10 18 0 15 -2 15 -10 2 -8 -11 -9 -7 -4 15 4 17 11 36 17 43 7
8 5 12 -7 12 -10 0 -14 5 -11 10 4 6 -6 10 -22 10 -25 1 -26 2 -10 14 21 16
22 32 2 43 -12 7 -7 12 20 22 19 7 33 17 30 22 -9 13 9 11 24 -3 11 -11 12
-10 6 1 -6 11 -4 13 8 8 10 -3 17 -2 17 3 0 5 6 7 14 4 8 -3 17 -1 20 5 8 12
95 4 110 -10 15 -14 36 -11 36 5 0 8 6 13 13 12 13 -1 17 6 17 28 0 16 -34 23
-150 31 -118 8 -220 27 -236 42 -8 8 -14 10 -14 4 0 -6 -4 -11 -10 -11 -5 0
-10 10 -10 23 0 28 50 56 51 29 0 -14 2 -13 9 3 5 11 9 15 9 9 1 -17 31 -12
31 5 0 14 2 14 10 1 6 -10 29 -15 73 -16 36 -1 75 -7 86 -13 12 -7 21 -8 21
-3 0 5 7 9 15 9 9 0 14 -6 11 -14 -3 -7 -1 -13 4 -13 6 0 10 5 10 11 0 6 9 8
21 4 14 -5 25 -2 30 6 8 12 11 11 20 -1 8 -12 9 -9 4 10 -4 14 -12 30 -18 35
-7 7 -8 6 -3 -2 5 -9 -1 -13 -21 -13 -27 0 -26 1 12 21 51 27 56 32 24 24 -16
-4 -30 -2 -33 4 -4 6 -16 11 -27 11 -10 0 -19 5 -19 10 0 6 3 9 8 8 16 -6 13
17 -4 27 -31 17 -59 45 -45 45 9 0 8 5 -3 16 -15 15 -20 29 -17 47 1 5 -8 11
-19 14 -11 3 -18 9 -15 13 3 5 -4 6 -15 3 -14 -4 -27 3 -41 21 -14 17 -27 25
-38 21 -19 -6 -41 30 -41 65 0 11 -4 20 -10 20 -5 0 -10 5 -10 12 0 6 -7 19
-16 29 -15 17 -14 20 12 49 20 20 35 28 48 24 12 -4 16 -2 12 5 -4 6 -4 11 -1
11 8 0 23 -16 53 -54 13 -17 33 -31 44 -33 20 -3 20 -2 5 15 -21 23 -18 62 5
62 10 0 18 -4 18 -10 0 -5 -7 -10 -15 -10 -8 0 -15 -4 -15 -10 0 -5 4 -10 9
-10 6 0 13 5 16 10 3 6 10 10 16 10 5 0 9 -4 9 -10 0 -15 40 -51 50 -45 5 3
24 -15 43 -40 27 -35 36 -41 41 -29 4 9 13 14 21 10 8 -3 15 -1 15 5 0 6 4 8
10 4 5 -3 7 -12 4 -19 -3 -7 3 -19 12 -27 15 -12 16 -12 11 6 -4 11 -9 37 -11
58 -5 35 -4 37 15 26 17 -9 21 -7 26 11 6 21 7 20 34 -9 24 -27 69 -45 55 -23
-2 4 -1 14 3 21 6 9 10 5 15 -13 5 -19 13 -26 30 -26 30 0 41 27 21 50 -16 18
-21 85 -6 76 5 -4 11 -1 13 6 4 10 10 10 32 0 26 -12 27 -11 20 10 -4 13 -11
26 -16 29 -5 3 -3 9 5 12 9 3 17 -2 20 -14 3 -10 11 -19 17 -19 10 0 10 3 0
15 -10 12 -9 15 7 15 12 0 19 -8 20 -20 1 -11 -4 -20 -10 -20 -7 0 -6 -4 3
-10 8 -5 19 -5 25 -1 19 16 75 24 75 11 0 -6 8 -19 17 -28 16 -16 16 -16 11 0
-5 13 -2 16 18 14 23 -3 59 -26 39 -26 -15 0 49 -50 72 -56 13 -4 21 -10 18
-14 -7 -11 22 -21 40 -14 8 4 15 1 15 -5 0 -6 6 -8 13 -5 7 2 28 -9 47 -26 19
-17 39 -29 44 -27 13 4 36 -17 36 -33 0 -6 5 -8 10 -5 6 3 10 -2 10 -12 0 -10
6 -29 13 -43 25 -49 27 -59 10 -53 -14 5 -12 0 5 -24 12 -17 22 -38 22 -45 0
-8 3 -18 7 -21 8 -9 15 -52 16 -94 0 -25 2 -29 12 -20 7 7 9 14 4 15 -11 4 -2
22 12 22 5 0 9 -7 9 -15 0 -8 9 -15 20 -15 11 0 20 -4 20 -10 0 -5 -3 -9 -7
-9 -20 3 -34 -2 -29 -10 3 -5 15 -7 26 -4 14 4 20 0 20 -11 0 -11 9 -16 26
-16 14 0 23 4 19 10 -3 5 1 20 9 32 12 17 16 18 21 7 3 -8 14 -15 25 -16 16
-1 20 5 20 28 0 37 12 37 26 2 7 -16 16 -37 20 -48 6 -14 10 4 12 60 3 83 13
101 44 84 19 -10 27 5 8 16 -5 3 -10 11 -10 16 0 6 5 7 12 3 8 -5 9 0 6 14 -7
27 3 28 33 3 23 -19 24 -19 45 4 12 13 24 30 26 37 4 11 8 10 22 -1 19 -16 34
-7 18 11 -10 13 -15 39 -13 71 1 21 27 23 35 1 3 -8 10 -12 16 -9 6 3 23 -3
39 -14 16 -12 34 -21 39 -21 6 0 12 -5 14 -12 2 -6 20 4 41 25 31 29 36 41 31
61 -6 26 1 31 35 27 7 -2 11 2 8 6 -10 16 39 8 76 -12 21 -11 36 -26 34 -35
-1 -10 4 -14 17 -12 10 2 15 -1 12 -6 -3 -5 6 -18 19 -28 22 -17 24 -24 20
-71 -2 -29 -1 -53 4 -53 4 0 6 -20 3 -45 -4 -40 -2 -44 14 -38 13 5 14 8 5 11
-11 4 -11 6 0 12 15 10 19 26 24 94 2 27 9 52 15 56 29 18 4 113 -41 162 -35
37 -59 47 -126 51 -98 7 -142 48 -58 55 21 2 48 10 60 18 20 13 27 13 57 1 19
-8 51 -29 71 -47 34 -29 40 -31 79 -24 24 5 49 8 56 7 6 0 24 13 39 31 l26 31
-52 3 c-45 3 -52 6 -46 20 4 9 9 37 11 61 3 24 9 52 14 62 6 10 10 27 10 39 0
12 10 25 25 32 28 12 33 28 10 28 -11 0 -12 5 -5 25 5 14 6 25 2 25 -4 0 0 6
9 13 14 11 34 65 46 129 3 14 13 35 23 46 10 11 22 41 25 67 7 46 8 47 39 42
17 -3 44 -10 60 -16z m958 -93 c-2 -51 -6 -95 -8 -97 -11 -12 -19 17 -19 74
-1 35 -4 67 -8 71 -4 4 -7 -1 -7 -11 0 -10 -2 -16 -5 -13 -9 8 6 58 16 58 5 0
9 -8 10 -17 0 -14 2 -13 9 5 5 12 11 22 13 22 2 0 2 -42 -1 -92z m-6069 75
c-7 -2 -19 -2 -25 0 -7 3 -2 5 12 5 14 0 19 -2 13 -5z m6006 -22 c-1 -14 2
-39 5 -56 3 -16 3 -21 0 -10 -3 11 -10 24 -15 30 -12 12 -12 -11 0 -52 5 -18
6 -32 3 -31 -16 4 -82 -37 -88 -54 -3 -10 -10 -18 -15 -18 -5 0 -9 -9 -9 -21
0 -14 -5 -19 -17 -17 -10 2 -17 11 -17 21 2 15 0 15 -19 2 -24 -17 -51 -20
-42 -5 3 6 -1 10 -10 10 -9 0 -13 5 -10 10 4 6 1 9 -7 8 -7 -2 -16 -10 -20
-18 -4 -10 -7 -5 -7 14 -1 24 -3 27 -16 16 -16 -13 -20 -84 -8 -154 5 -34 12
-41 50 -58 44 -19 86 -29 137 -32 29 -1 30 2 42 59 7 33 20 80 28 104 17 47
13 65 -12 57 -10 -3 -24 -1 -32 4 -13 9 -13 11 0 20 20 13 25 13 40 -5 17 -20
27 -19 33 5 8 32 22 24 46 -29 21 -43 22 -54 13 -97 -18 -79 -39 -211 -53
-329 -13 -108 -13 -109 -25 -68 -33 113 -109 173 -284 226 -123 38 -148 41
-152 20 -2 -13 -23 -21 -83 -33 -73 -14 -80 -17 -80 -38 0 -20 -12 -29 -69
-53 -93 -40 -100 -39 -93 14 4 23 9 74 12 112 10 109 47 450 49 453 2 1 38 -5
82 -13 99 -19 139 -19 316 0 359 39 327 39 327 6z m211 -56 c0 -25 -4 -45 -9
-45 -10 0 -25 30 -22 44 1 5 -4 13 -11 18 -10 6 -10 10 2 18 30 20 40 11 40
-35z m-6613 -7 c-3 -8 -6 -5 -6 6 -1 11 2 17 5 13 3 -3 4 -12 1 -19z m643 3
c14 -27 13 -34 -5 -27 -9 3 -15 0 -15 -9 0 -8 6 -15 13 -15 24 0 17 -84 -8
-94 -12 -4 -13 -2 -3 13 9 15 9 28 0 58 -6 21 -9 49 -5 62 4 17 3 22 -5 17 -7
-4 -12 -2 -12 3 0 18 29 12 40 -8z m-643 -83 c-2 -13 -4 -5 -4 17 -1 22 1 32
4 23 2 -10 2 -28 0 -40z m6584 -22 c-12 -18 -29 -40 -38 -47 -15 -13 -16 -11
-9 11 4 14 8 32 8 40 0 32 8 43 22 31 11 -9 15 -8 21 6 5 12 9 14 12 6 3 -7
-5 -28 -16 -47z m-1276 4 c-4 -12 -9 -19 -12 -17 -3 3 -2 15 2 27 4 12 9 19
12 17 3 -3 2 -15 -2 -27z m997 -52 c-7 -7 -12 -8 -12 -2 0 14 12 26 19 19 2
-3 -1 -11 -7 -17z m-5643 -34 c14 -12 -19 -1 -35 12 -18 14 -18 14 6 3 14 -6
27 -13 29 -15z m71 6 c0 -5 -2 -10 -4 -10 -3 0 -8 5 -11 10 -3 6 -1 10 4 10 6
0 11 -4 11 -10z m5600 6 c0 -2 -7 -6 -15 -10 -8 -3 -15 -1 -15 4 0 6 7 10 15
10 8 0 15 -2 15 -4z m-5594 -57 c19 -22 19 -22 -3 -8 -13 8 -23 17 -23 21 0
12 6 9 26 -13z m54 5 c0 -8 -19 -13 -24 -6 -3 5 1 9 9 9 8 0 15 -2 15 -3z
m850 -19 c0 -8 -4 -15 -10 -15 -5 0 -7 7 -4 15 4 8 8 15 10 15 2 0 4 -7 4 -15z
m-855 -23 c-3 -3 -11 0 -18 7 -9 10 -8 11 6 5 10 -3 15 -9 12 -12z m5487 -24
c-7 -7 -12 -8 -12 -2 0 14 12 26 19 19 2 -3 -1 -11 -7 -17z m-5907 -38 c1 -8
7 -14 15 -12 13 3 13 1 1 -10 -8 -8 -15 -9 -17 -3 -12 30 -22 37 -40 28 -13
-7 -27 -6 -42 2 -21 11 -18 13 30 11 40 -1 53 -5 53 -16z m-96 -25 c-8 -7 -13
-6 -16 3 -3 6 -12 12 -21 12 -14 0 -14 2 -3 9 19 12 55 -9 40 -24z m190 -4
c17 -13 22 -25 19 -39 -6 -20 -5 -21 20 -4 19 12 27 13 30 4 2 -6 8 -12 14
-12 5 0 16 -6 23 -14 12 -12 9 -16 -23 -29 -43 -17 -265 -77 -284 -77 -26 1
18 18 127 49 197 55 187 51 120 45 -33 -3 -73 -8 -90 -9 -112 -12 -168 -14
-149 -6 12 5 43 12 70 16 94 12 114 16 114 24 0 5 -8 11 -17 15 -10 3 -24 9
-32 12 -10 5 -12 2 -8 -9 4 -11 0 -15 -11 -15 -9 0 -24 -1 -32 -3 -9 -2 -15 3
-15 14 0 10 -7 22 -15 27 -12 8 -11 10 6 10 12 0 24 -7 28 -15 3 -8 10 -15 16
-15 6 0 9 4 6 8 -7 12 36 12 51 0 10 -8 13 -6 13 5 0 9 -8 21 -17 26 -14 8
-15 10 -3 10 8 1 26 -8 39 -18z m321 0 c0 -10 -69 -25 -77 -17 -3 3 10 9 28
15 45 12 49 13 49 2z m2850 -21 c0 -5 -2 -10 -4 -10 -3 0 -8 5 -11 10 -3 6 -1
10 4 10 6 0 11 -4 11 -10z m2895 0 c3 -5 1 -10 -4 -10 -6 0 -11 5 -11 10 0 6
2 10 4 10 3 0 8 -4 11 -10z m-5060 -60 c3 -5 1 -10 -4 -10 -6 0 -11 5 -11 10
0 6 2 10 4 10 3 0 8 -4 11 -10z m4395 -14 c0 -7 -11 -16 -25 -18 -16 -4 -25
-1 -25 8 0 7 10 15 23 17 12 2 23 5 25 6 1 0 2 -5 2 -13z m-5681 -23 c-21 -25
8 -33 60 -17 86 27 129 36 147 32 11 -2 -15 -12 -56 -22 -41 -11 -88 -28 -103
-39 -27 -18 -29 -18 -48 -2 -27 25 -25 86 3 69 5 -3 4 -12 -3 -21z m395 8 c3
-5 20 -12 38 -15 21 -4 53 -25 85 -57 38 -36 62 -52 90 -56 21 -3 45 -11 53
-18 8 -7 23 -15 33 -18 10 -4 16 -11 12 -16 -3 -5 -1 -12 5 -16 5 -3 10 -11
10 -17 0 -6 -8 -4 -17 5 -24 21 -79 35 -68 17 6 -9 4 -11 -5 -5 -7 4 -16 2
-20 -6 -6 -9 -11 -5 -15 14 -6 22 -10 25 -21 16 -8 -6 -11 -15 -8 -20 3 -5 -5
-9 -17 -9 -21 0 -22 1 -4 20 10 11 15 23 10 28 -4 4 -10 1 -12 -5 -3 -10 -10
-10 -24 -2 -11 5 -24 7 -29 4 -6 -4 -5 5 2 19 6 14 18 26 25 26 8 0 11 5 7 11
-3 6 -15 8 -26 6 -16 -5 -19 -2 -15 14 6 23 8 23 -36 4 -44 -18 -72 -20 -38
-2 31 16 24 32 -14 33 -16 0 -39 6 -51 12 -11 6 -32 9 -45 6 -13 -2 -1 4 26
15 59 23 62 24 69 12z m2356 -21 c0 -5 -4 -10 -10 -10 -5 0 -10 5 -10 10 0 6
5 10 10 10 6 0 10 -4 10 -10z m3625 -21 c5 -5 24 -9 42 -9 27 0 34 -4 39 -27
3 -16 7 -32 9 -38 1 -5 -1 -20 -6 -32 -8 -21 -9 -21 -39 -6 -17 8 -34 12 -37
9 -12 -12 26 -76 46 -76 30 0 39 -20 40 -90 1 -36 3 -80 6 -97 4 -30 2 -33
-35 -43 -21 -6 -42 -10 -47 -9 -4 1 -21 1 -37 0 l-28 -1 7 -62 c4 -35 8 -72 9
-83 5 -35 -8 -53 -14 -20 -4 21 -11 30 -25 30 -21 0 -26 17 -15 49 4 11 3 40
-2 65 -12 59 -10 203 2 215 7 7 10 6 10 -2 0 -21 18 -13 26 11 4 12 15 32 24
45 22 27 16 56 -16 81 -24 19 -31 60 -18 95 6 17 38 14 59 -5z m-635 -28 c0
-9 -22 -16 -94 -26 -21 -3 -79 -19 -129 -35 -85 -28 -113 -31 -91 -11 14 12
153 60 204 70 62 12 110 13 110 2z m-5430 -11 c-20 -13 -33 -13 -25 0 3 6 14
10 23 10 15 0 15 -2 2 -10z m5410 -51 c0 -6 -4 -7 -10 -4 -5 3 -10 11 -10 16
0 6 5 7 10 4 6 -3 10 -11 10 -16z m-5760 1 c0 -5 -2 -10 -4 -10 -3 0 -8 5 -11
10 -3 6 -1 10 4 10 6 0 11 -4 11 -10z m375 -50 c3 -5 1 -10 -4 -10 -6 0 -11 5
-11 10 0 6 2 10 4 10 3 0 8 -4 11 -10z m6005 -9 c0 -11 -39 -25 -47 -18 -3 3
-2 10 2 16 8 13 45 15 45 2z m-5815 -20 c3 -5 1 -12 -5 -16 -5 -3 -10 1 -10 9
0 18 6 21 15 7z m-55 -11 c0 -5 -4 -10 -10 -10 -5 0 -10 5 -10 10 0 6 5 10 10
10 6 0 10 -4 10 -10z m10 -30 c0 -5 -2 -10 -4 -10 -3 0 -8 5 -11 10 -3 6 -1
10 4 10 6 0 11 -4 11 -10z m-522 -45 c-3 -3 -9 2 -12 12 -6 14 -5 15 5 6 7 -7
10 -15 7 -18z m479 19 c-3 -3 -12 -4 -19 -1 -8 3 -5 6 6 6 11 1 17 -2 13 -5z
m294 -21 c13 -15 12 -15 -8 -4 -24 12 -29 21 -14 21 5 0 15 -7 22 -17z m3703
1 c3 -8 2 -12 -4 -9 -6 3 -10 10 -10 16 0 14 7 11 14 -7z m-3950 -6 c-3 -4
-12 -8 -20 -8 -8 0 -13 4 -10 8 3 5 12 9 20 9 8 0 13 -4 10 -9z m210 -6 c2 -4
-4 -8 -15 -8 -10 0 -19 4 -19 8 0 4 6 8 14 8 8 0 17 -4 20 -8z m-54 -27 c0 -2
-7 -5 -15 -9 -9 -3 -15 0 -15 9 0 9 6 12 15 9 8 -4 15 -7 15 -9z m50 -29 c0
-8 -9 -16 -20 -19 -23 -6 -26 7 -7 27 14 16 27 11 27 -8z m-730 -8 c0 -16 -3
-19 -11 -11 -6 6 -8 16 -5 22 11 17 16 13 16 -11z m5741 -13 c-5 -45 -10 -47
-42 -24 -16 11 -36 18 -44 15 -9 -3 -15 1 -15 9 0 8 12 17 28 21 15 3 32 7 37
9 27 10 40 -1 36 -30z m-116 -4 c-3 -6 -12 -11 -20 -11 -8 0 -18 -7 -23 -16
-8 -14 -10 -14 -26 1 -21 22 -11 33 34 37 41 4 44 3 35 -11z m-5634 -71 c-9
-23 -10 -23 -10 11 -1 20 2 39 7 43 11 12 14 -27 3 -54z m5686 40 c-5 -29 -14
-35 -33 -19 -14 12 -14 14 2 26 25 18 34 16 31 -7z m-4971 -17 c-10 -10 -19 5
-10 18 6 11 8 11 12 0 2 -7 1 -15 -2 -18z m-646 -79 c22 -83 22 -86 4 -99 -11
-8 -22 -15 -25 -15 -8 0 -18 115 -15 168 0 17 4 32 7 32 3 0 16 -39 29 -86z
m710 67 c0 -5 -9 -11 -19 -14 -17 -4 -18 -2 -8 13 10 18 27 18 27 1z m3325 -1
c3 -5 1 -10 -4 -10 -6 0 -11 5 -11 10 0 6 2 10 4 10 3 0 8 -4 11 -10z m-3340
-40 c3 -5 -1 -10 -10 -10 -9 0 -13 5 -10 10 3 6 8 10 10 10 2 0 7 -4 10 -10z
m4957 -67 c78 -81 95 -114 78 -157 -6 -16 -6 -55 0 -107 5 -45 13 -147 16
-226 4 -78 9 -143 11 -143 7 0 39 35 62 68 12 17 26 32 30 32 4 0 16 -17 26
-37 l18 -38 9 30 c21 66 11 425 -11 425 -9 0 -76 -211 -95 -300 -9 -42 -14
-54 -15 -35 -1 17 3 46 9 65 14 48 43 261 36 267 -3 3 -12 -10 -20 -28 -22
-52 -20 -8 5 78 16 59 18 83 11 118 -8 38 -7 44 8 48 14 4 27 -14 60 -84 23
-48 39 -92 36 -97 -6 -10 38 -325 56 -394 9 -36 17 -48 30 -48 10 0 21 -7 24
-15 4 -8 12 -15 19 -15 7 0 37 -13 68 -30 54 -29 62 -30 184 -30 71 0 133 -4
138 -8 19 -13 14 -61 -6 -67 -25 -8 -24 -20 6 -47 23 -22 24 -27 16 -78 -5
-30 -6 -59 -2 -65 4 -5 7 -37 6 -70 -1 -33 2 -68 7 -77 5 -10 5 -18 0 -18 -4
0 -7 -56 -6 -125 2 -114 0 -126 -17 -136 -11 -5 -19 -8 -20 -7 0 2 -2 41 -5
87 -4 74 -3 82 11 71 13 -10 15 -9 15 10 0 16 -4 20 -16 16 -13 -5 -15 6 -14
82 2 145 0 172 -11 172 -7 0 -10 -68 -7 -224 3 -217 2 -225 -17 -230 -23 -6
-31 5 -39 55 -7 44 -44 92 -85 109 -17 7 -35 25 -42 43 -33 79 -101 139 -172
149 -17 2 -25 15 -37 58 -8 30 -18 60 -23 67 -4 6 -3 24 3 38 16 42 2 92 -31
116 -16 11 -29 16 -29 10 0 -17 -14 -13 -48 15 -37 31 -40 44 -12 44 24 0 26
20 5 60 -20 38 -28 38 -59 -3 -31 -41 -32 -47 -7 -47 26 0 34 -15 17 -29 -10
-8 -21 -7 -44 4 -16 9 -47 16 -69 17 -21 0 -44 6 -52 12 -7 6 -32 20 -54 31
-34 17 -42 28 -60 80 -11 33 -26 67 -33 76 -8 8 -14 22 -14 30 0 8 -6 24 -14
35 -8 10 -20 60 -28 110 -14 84 -13 94 5 145 15 43 17 70 13 132 -5 54 -3 77
5 77 6 0 9 -7 5 -15 -3 -8 -2 -25 3 -37 8 -21 10 -20 30 20 13 25 28 42 39 42
10 0 52 -35 94 -77z m-237 57 c3 -5 -3 -10 -14 -10 -12 0 -21 5 -21 10 0 6 6
10 14 10 8 0 18 -4 21 -10z m-4785 -34 c0 -11 -19 -15 -25 -6 -3 5 1 10 9 10
9 0 16 -2 16 -4z m5425 -99 l-14 -52 0 57 c-1 31 2 64 6 74 6 15 7 15 14 -5 5
-13 3 -42 -6 -74z m-6118 51 c-3 -7 -5 -2 -5 12 0 14 2 19 5 13 2 -7 2 -19 0
-25z m0 -40 c-3 -8 -6 -5 -6 6 -1 11 2 17 5 13 3 -3 4 -12 1 -19z m761 -30
c-2 -6 -10 -14 -16 -16 -7 -2 -10 2 -6 12 7 18 28 22 22 4z m1476 -13 c-4 -10
0 -15 12 -15 21 0 54 -28 54 -45 0 -7 6 -18 14 -24 10 -8 13 -23 9 -44 -4 -29
-2 -32 22 -33 31 -2 44 -12 28 -22 -7 -5 -9 -13 -3 -21 4 -8 6 -20 3 -28 -5
-12 8 -18 30 -14 4 0 7 -10 7 -23 0 -13 4 -26 9 -28 18 -6 24 -74 8 -90 -10
-10 -12 -20 -6 -29 5 -8 9 -10 9 -6 0 5 4 5 10 2 15 -9 -12 -33 -32 -30 -11 3
-15 -1 -11 -11 4 -10 -2 -17 -16 -21 -24 -6 -28 -21 -6 -29 8 -4 13 -9 10 -14
-2 -4 7 -12 20 -18 29 -14 32 -28 7 -36 -10 -3 -18 -15 -18 -25 0 -16 4 -18
19 -9 10 5 21 7 25 4 3 -3 0 -6 -6 -6 -7 0 -2 -16 12 -39 16 -25 23 -47 20
-62 -4 -17 -3 -20 4 -10 6 8 12 9 16 3 9 -15 -4 -42 -20 -42 -10 0 -14 -14
-14 -51 0 -41 -3 -50 -15 -46 -8 4 -17 2 -20 -3 -9 -15 -85 -8 -85 8 0 8 -5
10 -12 6 -10 -6 -10 -4 0 8 10 13 10 17 -5 24 -10 4 -22 8 -28 9 -5 0 -14 3
-20 7 -5 3 -28 2 -50 -2 -22 -4 -32 -8 -22 -9 24 -1 21 -20 -5 -30 -15 -5 -28
-5 -37 2 -7 6 -19 12 -26 13 -7 1 -22 11 -34 23 -23 23 -41 27 -41 9 0 -6 -9
-2 -20 10 -11 12 -20 28 -20 36 0 8 -5 18 -11 22 -6 3 -9 15 -6 25 4 14 0 19
-14 19 -16 0 -18 3 -10 19 6 10 7 21 4 25 -3 3 -1 6 5 6 6 0 9 15 8 35 -3 26
2 39 16 49 11 8 15 15 10 17 -5 2 -12 16 -16 31 -5 21 -1 33 14 48 15 15 17
20 5 20 -23 0 -18 15 10 30 26 14 31 25 16 34 -14 9 -1 46 16 46 12 0 14 7 10
30 -4 17 -2 30 3 30 6 0 10 9 10 20 0 11 -5 20 -12 20 -6 0 -3 7 8 16 10 8 13
13 7 9 -7 -3 -13 -2 -13 3 0 6 7 12 15 16 8 3 15 15 15 26 0 11 5 20 10 20 6
0 10 6 10 14 0 7 11 29 24 49 13 19 22 38 20 41 -2 3 -1 4 2 1 4 -2 20 7 36
20 34 29 40 31 32 10z m4093 -17 c-3 -7 -5 -2 -5 12 0 14 2 19 5 13 2 -7 2
-19 0 -25z m-5766 -28 c81 -38 95 -48 65 -43 -21 3 -68 24 -105 46 -108 65
-99 64 40 -3z m242 9 c-12 -18 -23 -27 -27 -21 -6 10 34 61 43 55 2 -1 -5 -16
-16 -34z m5257 22 c0 -6 -4 -13 -10 -16 -5 -3 -10 1 -10 9 0 9 5 16 10 16 6 0
10 -4 10 -9z m-4379 -77 c0 -10 -2 -37 -5 -59 -4 -30 0 -45 14 -60 22 -23 50
-97 50 -130 0 -21 -4 -23 -39 -18 -46 6 -51 -3 -51 -122 0 -100 -6 -123 -34
-127 -11 -2 -20 -7 -18 -12 3 -8 -42 -36 -59 -36 -5 0 -9 7 -9 15 0 8 7 15 16
15 8 0 22 7 31 15 13 14 14 49 8 280 l-7 264 43 3 c50 3 60 -1 60 -28z m4657
-88 c32 -16 34 -16 50 3 15 18 64 28 110 22 19 -2 17 -111 -3 -111 -12 0 -11
-4 5 -20 26 -26 16 -50 -21 -50 -23 0 -29 5 -30 23 -1 21 -1 21 -8 -3 -7 -24
-11 -25 -78 -25 -55 -1 -77 -5 -92 -19 -23 -21 -51 -15 -58 13 -3 11 -11 17
-18 15 -18 -7 -29 14 -16 30 6 7 8 16 4 20 -4 4 0 4 9 1 19 -8 30 7 22 29 -9
23 -30 20 -48 -6 -9 -12 -16 -18 -16 -13 0 6 -4 4 -8 -3 -7 -10 -15 -9 -40 4
-37 18 -42 49 -9 58 l22 6 -25 20 -25 21 35 -3 c21 -2 41 -11 50 -23 9 -12 27
-20 45 -20 23 0 30 4 30 20 0 34 12 44 47 36 18 -5 48 -16 66 -25z m-5777 -13
c13 -15 12 -15 -8 -4 -24 12 -29 21 -14 21 5 0 15 -7 22 -17z m135 -65 c33
-18 69 -38 79 -45 16 -9 20 -27 26 -110 3 -54 10 -108 14 -120 10 -31 -6 -29
-44 3 -29 24 -46 74 -20 58 8 -5 8 -1 0 14 -6 11 -11 42 -11 67 0 61 -13 83
-63 104 -44 19 -89 59 -51 45 18 -7 18 -6 -1 17 -11 13 -13 18 -4 11 9 -6 43
-27 75 -44z m1356 -50 c-7 -7 -12 -8 -12 -2 0 14 12 26 19 19 2 -3 -1 -11 -7
-17z m-1946 -26 c6 -12 20 -29 30 -37 18 -14 18 -14 -3 -15 -18 0 -23 -6 -23
-26 0 -24 -3 -26 -35 -22 -19 2 -36 0 -38 -6 -7 -21 -27 7 -27 39 0 19 -4 36
-9 39 -16 10 0 45 23 49 43 9 71 2 82 -21z m161 12 c-3 -3 -12 -4 -19 -1 -8 3
-5 6 6 6 11 1 17 -2 13 -5z m217 -53 c30 -31 59 -44 36 -16 -28 34 10 12 71
-41 48 -42 63 -61 60 -77 -1 -12 -8 -25 -13 -28 -11 -7 -12 -284 -1 -302 3 -5
1 -7 -4 -4 -6 4 -13 20 -16 36 -4 17 -22 52 -42 79 -19 27 -35 56 -35 63 0 8
-7 24 -15 35 -8 12 -11 25 -7 29 4 5 2 5 -5 1 -12 -6 -39 62 -36 92 0 6 -4 12
-9 12 -6 0 -7 7 -4 16 3 8 -1 22 -9 30 -8 9 -15 21 -15 27 0 7 4 6 10 -3 5 -8
10 -10 10 -4 0 6 -11 23 -25 38 -28 31 -33 45 -8 25 15 -13 15 -12 4 9 -6 12
-16 22 -21 22 -6 0 -10 5 -10 10 0 16 51 -14 84 -49z m5353 -113 c-3 -7 -5 -2
-5 12 0 14 2 19 5 13 2 -7 2 -19 0 -25z m-5725 -3 c6 -29 1 -31 -24 -8 -23 21
-23 33 1 33 12 0 20 -9 23 -25z m56 0 c-8 -18 -14 -22 -22 -15 -8 8 -6 15 8
26 26 19 27 18 14 -11z m2782 -54 c0 -5 -7 -11 -15 -15 -9 -3 -15 0 -15 9 0 8
7 15 15 15 8 0 15 -4 15 -9z m-1160 -12 c0 -5 5 -7 10 -4 6 3 10 1 10 -5 0 -6
-7 -13 -15 -16 -8 -4 -12 -10 -9 -15 6 -11 1 -11 -20 -3 -13 5 -14 9 -5 20 10
12 9 13 -5 8 -10 -4 -15 -13 -11 -22 3 -9 -7 -26 -27 -43 -36 -33 -29 -39 9
-9 33 26 51 26 28 0 -27 -30 -13 -34 29 -9 20 12 40 19 43 16 3 -4 -5 -11 -19
-16 -13 -5 -30 -16 -37 -25 -7 -9 -17 -13 -22 -10 -5 3 -9 -2 -9 -10 0 -8 9
-18 21 -21 16 -5 18 -10 8 -21 -6 -8 -18 -14 -25 -14 -8 0 -14 -4 -14 -10 0
-5 -4 -10 -10 -10 -5 0 -10 7 -10 15 0 7 -7 18 -16 23 -11 6 -15 17 -11 31 3
11 2 19 -3 16 -4 -2 -19 13 -34 35 -24 36 -24 39 -7 45 10 3 21 14 24 25 3 13
12 18 26 15 12 -2 36 2 54 10 39 17 47 18 47 4z m1180 -13 c0 -2 -7 -6 -15
-10 -8 -3 -15 -1 -15 4 0 6 7 10 15 10 8 0 15 -2 15 -4z m-1140 -20 c0 -2 -7
-7 -16 -10 -8 -3 -12 -2 -9 4 6 10 25 14 25 6z m1135 -24 c3 -8 1 -20 -5 -26
-8 -8 -9 -6 -5 6 4 11 0 18 -14 23 -26 8 -28 25 -2 18 11 -3 22 -12 26 -21z
m25 12 c0 -8 -5 -12 -10 -9 -6 4 -8 11 -5 16 9 14 15 11 15 -7z m2661 -33 c-7
-12 -16 -21 -21 -21 -14 0 -12 34 2 48 18 18 32 -2 19 -27z m197 27 c-3 -7
-13 -15 -24 -17 -16 -3 -17 -1 -5 13 16 19 34 21 29 4z m-5607 -154 c60 -30
111 -54 114 -54 12 0 205 -94 205 -100 0 -3 -37 -18 -82 -33 -46 -14 -152 -51
-236 -82 -84 -30 -162 -55 -172 -55 -21 0 -28 34 -10 45 13 8 13 45 1 45 -5 0
-13 -9 -16 -21 -11 -33 -15 -17 -6 22 5 23 4 44 -2 55 -13 23 -16 103 -5 110
4 3 8 10 8 15 0 6 -3 8 -8 6 -6 -4 -8 79 -2 93 4 8 7 24 8 43 2 17 6 17 48 -8
25 -15 95 -51 155 -81z m1337 73 c11 0 23 -9 25 -19 5 -19 -8 -25 -18 -8 -3 6
-15 10 -26 10 -13 0 -19 7 -19 23 0 15 3 18 9 9 4 -7 17 -14 29 -15z m4377 13
c-3 -5 -11 -10 -16 -10 -6 0 -7 5 -4 10 3 6 11 10 16 10 6 0 7 -4 4 -10z
m-4129 -19 c-3 -5 -17 -11 -32 -14 -29 -5 -20 9 11 16 11 3 21 5 23 6 2 0 1
-3 -2 -8z m-1247 -141 c0 -8 -6 0 -14 19 -8 18 -15 36 -15 40 1 13 29 -45 29
-59z m1896 51 c-3 -5 -1 -12 5 -16 6 -4 8 -11 4 -16 -3 -5 -10 -7 -15 -4 -13
8 -11 45 2 45 5 0 8 -4 4 -9z m593 -13 c-6 -18 -28 -21 -28 -4 0 9 7 16 16 16
9 0 14 -5 12 -12z m2402 -34 c0 -8 -4 -12 -10 -9 -5 3 -10 13 -10 21 0 8 5 12
10 9 6 -3 10 -13 10 -21z m-2380 -9 c11 -13 10 -14 -4 -9 -9 3 -16 10 -16 15
0 13 6 11 20 -6z m62 8 c-6 -2 -10 -9 -7 -14 4 -5 -1 -6 -10 -2 -13 5 -14 7
-3 14 7 5 18 8 23 8 6 0 4 -3 -3 -6z m-667 -13 c3 -6 -1 -7 -9 -4 -18 7 -21
14 -7 14 6 0 13 -4 16 -10z m3009 -26 c9 -24 7 -27 -9 -10 -17 17 -19 26 -6
26 5 0 12 -7 15 -16z m-2407 -46 c-3 -8 -6 -5 -6 6 -1 11 2 17 5 13 3 -3 4
-12 1 -19z m43 2 c0 -5 -5 -10 -11 -10 -5 0 -7 5 -4 10 3 6 8 10 11 10 2 0 4
-4 4 -10z m330 -4 c0 -3 -4 -8 -10 -11 -5 -3 -10 -1 -10 4 0 6 5 11 10 11 6 0
10 -2 10 -4z m20 -16 c0 -5 -5 -10 -11 -10 -5 0 -7 5 -4 10 3 6 8 10 11 10 2
0 4 -4 4 -10z m-1490 -38 c0 -11 -13 -23 -35 -30 -60 -22 -72 -22 -71 0 2 39
106 69 106 30z m-1113 -24 c-3 -7 -5 -2 -5 12 0 14 2 19 5 13 2 -7 2 -19 0
-25z m5273 22 c0 -5 -4 -10 -10 -10 -5 0 -10 5 -10 10 0 6 5 10 10 10 6 0 10
-4 10 -10z m-555 -26 c21 -22 14 -27 -19 -14 -15 5 -24 14 -21 20 9 14 21 12
40 -6z m-2455 2 c0 -2 -7 -7 -16 -10 -8 -3 -12 -2 -9 4 6 10 25 14 25 6z m17
-38 c-3 -8 -6 -5 -6 6 -1 11 2 17 5 13 3 -3 4 -12 1 -19z m-2397 -32 c0 -2
-15 -6 -34 -8 -19 -2 -32 0 -30 4 5 8 64 12 64 4z m4897 -18 c-3 -8 -6 -5 -6
6 -1 11 2 17 5 13 3 -3 4 -12 1 -19z m-3632 2 c-3 -5 -14 -10 -23 -9 -14 0
-13 2 3 9 27 11 27 11 20 0z m785 -45 c0 -5 -5 -3 -10 5 -5 8 -10 20 -10 25 0
6 5 3 10 -5 5 -8 10 -19 10 -25z m1380 -50 c0 -5 -5 -3 -10 5 -5 8 -10 20 -10
25 0 6 5 3 10 -5 5 -8 10 -19 10 -25z m1520 5 c0 -5 -4 -10 -10 -10 -5 0 -10
5 -10 10 0 6 5 10 10 10 6 0 10 -4 10 -10z m-2873 -32 c-3 -8 -6 -5 -6 6 -1
11 2 17 5 13 3 -3 4 -12 1 -19z m58 -1 c11 4 13 1 9 -11 -5 -13 -2 -15 12 -9
18 6 18 5 2 -13 -9 -11 -26 -20 -36 -21 -15 -1 -19 6 -20 40 -1 32 1 38 9 25
5 -10 16 -15 24 -11z m610 13 c3 -5 2 -10 -4 -10 -5 0 -13 5 -16 10 -3 6 -2
10 4 10 5 0 13 -4 16 -10z m-398 -46 c-3 -3 -12 -4 -19 -1 -8 3 -5 6 6 6 11 1
17 -2 13 -5z m-177 -34 c0 -5 -10 -10 -22 -10 -19 0 -20 2 -8 10 19 13 30 13
30 0z m240 -14 c0 -3 -4 -8 -10 -11 -5 -3 -10 -1 -10 4 0 6 5 11 10 11 6 0 10
-2 10 -4z m-2358 -218 c-5 -95 -9 -104 -11 -25 0 42 2 77 7 77 4 0 6 -24 4
-52z m3510 -120 c-7 -7 -12 -8 -12 -2 0 14 12 26 19 19 2 -3 -1 -11 -7 -17z
m-3942 -98 c-8 -5 -22 -10 -30 -10 -13 0 -13 1 0 10 8 5 22 10 30 10 13 0 13
-1 0 -10z m484 -132 c23 -33 20 -45 -13 -50 -32 -5 -55 2 -58 17 -1 6 -4 18
-8 27 -5 13 0 18 22 21 15 2 31 5 35 6 4 0 14 -9 22 -21z m-689 -11 c28 -4 29
-5 8 -12 -32 -10 -29 -25 5 -26 22 -1 18 -3 -18 -13 -25 -7 -48 -11 -51 -10
-4 2 -9 18 -13 36 -7 33 9 54 29 38 5 -4 24 -10 40 -13z m-418 -42 c0 -8 -4
-12 -9 -9 -4 3 -8 9 -8 15 0 5 4 9 8 9 5 0 9 -7 9 -15z m1016 -2 c-7 -2 -19
-2 -25 0 -7 3 -2 5 12 5 14 0 19 -2 13 -5z m-623 -138 c13 -33 27 -65 32 -71
6 -8 -5 -15 -34 -22 -23 -6 -45 -9 -47 -6 -3 3 -7 48 -9 102 -4 96 -4 97 16
77 10 -11 29 -47 42 -80z m667 79 c-3 -3 -12 -4 -19 -1 -8 3 -5 6 6 6 11 1 17
-2 13 -5z m-452 -254 c24 -20 18 -66 -12 -89 -39 -31 -70 -36 -109 -17 -39 18
-49 35 -40 69 12 50 116 74 161 37z m-200 -20 c-3 -5 -12 -10 -18 -10 -7 0 -6
4 3 10 19 12 23 12 15 0z m-269 -177 c-11 -11 -19 6 -11 24 8 17 8 17 12 0 3
-10 2 -21 -1 -24z m454 -86 c11 -4 10 -6 -5 -6 -17 -1 -17 -3 -5 -11 13 -8 12
-10 -4 -10 -12 0 -16 5 -12 15 3 8 1 15 -5 15 -6 0 -7 5 -3 11 4 7 9 7 13 2 3
-6 13 -13 21 -16z m-70 -27 c0 -5 -4 -10 -10 -10 -5 0 -10 5 -10 10 0 6 5 10
10 10 6 0 10 -4 10 -10z m115 -70 c-3 -5 -12 -10 -18 -10 -7 0 -6 4 3 10 19
12 23 12 15 0z m255 -30 c0 -5 -12 -10 -27 -9 l-28 1 25 8 c14 4 26 8 28 9 1
1 2 -3 2 -9z m-43 -46 c-3 -3 -12 -4 -19 -1 -8 3 -5 6 6 6 11 1 17 -2 13 -5z
m399 -69 c-24 -18 -42 -19 -52 -3 -4 6 -3 8 4 5 5 -4 21 -3 34 2 33 14 36 13
14 -4z m5684 -31 c0 -8 -4 -14 -10 -14 -5 0 -10 9 -10 21 0 11 5 17 10 14 6
-3 10 -13 10 -21z m-5733 -20 c-3 -3 -12 -4 -19 -1 -8 3 -5 6 6 6 11 1 17 -2
13 -5z m5733 -185 c0 -5 -4 -9 -10 -9 -5 0 -10 7 -10 16 0 8 5 12 10 9 6 -3
10 -10 10 -16z"/>
<path d="M4510 6856 c0 -10 9 -16 21 -16 24 0 21 23 -4 28 -10 2 -17 -3 -17
-12z"/>
<path d="M4620 6830 c0 -5 5 -10 10 -10 6 0 10 5 10 10 0 6 -4 10 -10 10 -5 0
-10 -4 -10 -10z"/>
<path d="M4858 6833 c6 -2 18 -2 25 0 6 3 1 5 -13 5 -14 0 -19 -2 -12 -5z"/>
<path d="M5040 6790 c0 -5 5 -10 11 -10 5 0 7 5 4 10 -3 6 -8 10 -11 10 -2 0
-4 -4 -4 -10z"/>
<path d="M5460 6006 c0 -2 9 -6 20 -9 11 -3 20 -1 20 4 0 5 -9 9 -20 9 -11 0
-20 -2 -20 -4z"/>
<path d="M1622 6648 c-1 -27 0 -30 9 -15 6 9 14 15 19 12 5 -3 11 -1 15 5 3 5
-1 10 -9 10 -9 0 -16 5 -16 10 0 6 -4 10 -8 10 -4 0 -9 -15 -10 -32z"/>
<path d="M1790 6640 c0 -5 5 -10 11 -10 5 0 7 5 4 10 -3 6 -8 10 -11 10 -2 0
-4 -4 -4 -10z"/>
<path d="M1631 6544 c0 -11 3 -14 6 -6 3 7 2 16 -1 19 -3 4 -6 -2 -5 -13z"/>
<path d="M1730 6091 c-24 -7 -23 -8 9 -13 19 -3 47 0 62 5 20 8 38 7 68 -3 36
-12 46 -11 74 3 31 15 30 16 -78 15 -60 0 -121 -3 -135 -7z"/>
<path d="M2012 6088 c7 -19 53 -21 85 -4 28 15 28 15 -30 16 -43 0 -58 -3 -55
-12z"/>
<path d="M1195 6050 c27 -12 35 -12 35 0 0 6 -12 10 -27 9 -25 0 -26 -1 -8 -9z"/>
<path d="M1445 5850 c-3 -5 -1 -10 4 -10 6 0 11 5 11 10 0 6 -2 10 -4 10 -3 0
-8 -4 -11 -10z"/>
<path d="M1365 5820 c3 -5 13 -10 21 -10 8 0 14 5 14 10 0 6 -9 10 -21 10 -11
0 -17 -4 -14 -10z"/>
<path d="M1305 5800 c-3 -5 3 -10 14 -10 12 0 21 5 21 10 0 6 -6 10 -14 10 -8
0 -18 -4 -21 -10z"/>
<path d="M1258 5758 c9 -9 15 -9 24 0 9 9 7 12 -12 12 -19 0 -21 -3 -12 -12z"/>
<path d="M1210 5710 c0 -5 9 -10 20 -10 11 0 20 5 20 10 0 6 -9 10 -20 10 -11
0 -20 -4 -20 -10z"/>
<path d="M1192 5659 c2 -6 8 -10 13 -10 5 0 11 4 13 10 2 6 -4 11 -13 11 -9 0
-15 -5 -13 -11z"/>
<path d="M593 5645 c-3 -9 -3 -19 1 -22 7 -7 36 16 36 28 0 15 -30 10 -37 -6z"/>
<path d="M1192 5613 c-6 -2 -10 -9 -6 -14 3 -5 0 -9 -5 -9 -6 0 -11 -4 -11
-10 0 -5 8 -10 19 -10 13 0 19 7 19 25 0 14 -1 25 -2 24 0 0 -7 -3 -14 -6z"/>
<path d="M1505 5580 c3 -5 8 -10 11 -10 2 0 4 5 4 10 0 6 -5 10 -11 10 -5 0
-7 -4 -4 -10z"/>
<path d="M1185 5510 c3 -5 12 -10 20 -10 8 0 17 5 20 10 4 6 -5 10 -20 10 -15
0 -24 -4 -20 -10z"/>
<path d="M1228 5443 c7 -3 16 -2 19 1 4 3 -2 6 -13 5 -11 0 -14 -3 -6 -6z"/>
<path d="M1680 5439 c0 -5 5 -7 10 -4 6 3 10 8 10 11 0 2 -4 4 -10 4 -5 0 -10
-5 -10 -11z"/>
<path d="M1270 5391 c0 -17 18 -21 24 -6 3 9 0 15 -9 15 -8 0 -15 -4 -15 -9z"/>
<path d="M1640 5379 c0 -5 5 -7 10 -4 6 3 10 8 10 11 0 2 -4 4 -10 4 -5 0 -10
-5 -10 -11z"/>
<path d="M1326 5351 c-4 -7 -5 -15 -2 -18 9 -9 19 4 14 18 -4 11 -6 11 -12 0z"/>
<path d="M694 5310 c0 -22 4 -40 8 -40 10 0 10 51 0 68 -5 8 -8 -3 -8 -28z"/>
<path d="M1455 5340 c3 -5 10 -10 16 -10 5 0 9 5 9 10 0 6 -7 10 -16 10 -8 0
-12 -4 -9 -10z"/>
<path d="M1520 5310 c0 -5 5 -10 11 -10 5 0 7 5 4 10 -3 6 -8 10 -11 10 -2 0
-4 -4 -4 -10z"/>
<path d="M750 5200 c0 -5 5 -10 11 -10 5 0 7 5 4 10 -3 6 -8 10 -11 10 -2 0
-4 -4 -4 -10z"/>
<path d="M760 5150 c0 -5 5 -10 11 -10 5 0 7 5 4 10 -3 6 -8 10 -11 10 -2 0
-4 -4 -4 -10z"/>
<path d="M527 4893 c-12 -12 -7 -22 8 -17 8 4 15 10 15 15 0 11 -14 12 -23 2z"/>
<path d="M550 4875 c-7 -14 -17 -25 -22 -25 -15 0 -8 -28 8 -34 30 -12 50 10
46 48 -5 42 -14 45 -32 11z"/>
<path d="M825 4860 c-8 -13 3 -30 18 -30 8 0 7 3 -2 9 -7 5 -10 14 -7 20 4 6
5 11 2 11 -3 0 -8 -4 -11 -10z"/>
<path d="M828 4803 c7 -3 16 -2 19 1 4 3 -2 6 -13 5 -11 0 -14 -3 -6 -6z"/>
<path d="M1318 4713 c6 -2 18 -2 25 0 6 3 1 5 -13 5 -14 0 -19 -2 -12 -5z"/>
<path d="M1448 4663 c7 -3 16 -2 19 1 4 3 -2 6 -13 5 -11 0 -14 -3 -6 -6z"/>
<path d="M780 4629 c0 -5 5 -7 10 -4 6 3 10 8 10 11 0 2 -4 4 -10 4 -5 0 -10
-5 -10 -11z"/>
<path d="M912 4554 c-7 -8 -8 -14 -3 -14 10 0 25 19 20 25 -2 1 -10 -3 -17
-11z"/>
<path d="M910 4491 c0 -5 7 -12 16 -15 14 -5 15 -4 4 9 -14 17 -20 19 -20 6z"/>
<path d="M690 4456 c0 -2 7 -7 16 -10 8 -3 12 -2 9 4 -6 10 -25 14 -25 6z"/>
<path d="M950 4434 c0 -16 28 -50 35 -42 4 4 -2 17 -14 29 -12 13 -21 18 -21
13z"/>
<path d="M1413 4323 c9 -2 23 -2 30 0 6 3 -1 5 -18 5 -16 0 -22 -2 -12 -5z"/>
<path d="M1343 4053 c9 -2 23 -2 30 0 6 3 -1 5 -18 5 -16 0 -22 -2 -12 -5z"/>
<path d="M1665 4000 c-3 -5 1 -10 9 -10 9 0 16 5 16 10 0 6 -4 10 -9 10 -6 0
-13 -4 -16 -10z"/>
<path d="M1670 3970 c0 -5 5 -10 10 -10 6 0 10 5 10 10 0 6 -4 10 -10 10 -5 0
-10 -4 -10 -10z"/>
<path d="M1535 3960 c-3 -5 -1 -10 4 -10 6 0 11 5 11 10 0 6 -2 10 -4 10 -3 0
-8 -4 -11 -10z"/>
<path d="M1660 3889 c0 -5 5 -7 10 -4 6 3 10 8 10 11 0 2 -4 4 -10 4 -5 0 -10
-5 -10 -11z"/>
<path d="M1228 3853 c6 -2 18 -2 25 0 6 3 1 5 -13 5 -14 0 -19 -2 -12 -5z"/>
<path d="M1629 2876 c-71 -41 -122 -73 -134 -83 -5 -5 -37 -24 -69 -42 -33
-18 -66 -39 -73 -46 -7 -7 -17 -15 -23 -17 -21 -7 -70 -161 -70 -220 0 -32 3
-58 6 -58 3 0 37 9 75 21 78 24 78 24 55 119 l-13 55 65 43 c70 45 85 50 76
27 -4 -8 -11 -12 -16 -9 -6 4 -6 0 0 -13 9 -17 7 -18 -23 -15 -23 3 -39 -2
-53 -16 -11 -11 -24 -17 -28 -14 -4 4 -4 -2 0 -13 5 -11 12 -32 16 -46 11 -38
41 -80 51 -73 5 3 27 7 49 8 22 2 46 8 54 15 7 6 31 14 52 17 22 2 69 14 106
26 58 19 67 25 63 42 -3 12 -16 80 -31 151 -14 72 -30 137 -35 146 -15 29 -44
27 -100 -5z m101 -70 c0 -2 -7 -7 -16 -10 -8 -3 -12 -2 -9 4 6 10 25 14 25 6z
m-10 -48 c0 -25 -18 -44 -30 -32 -8 8 -7 16 5 28 20 19 25 20 25 4z m-135 -38
c-3 -5 -2 -10 3 -10 13 0 10 -63 -3 -72 -19 -14 -23 -8 -20 40 3 56 2 52 16
52 5 0 7 -4 4 -10z m-102 -171 c-3 -10 -9 -16 -14 -13 -11 6 -12 38 -2 47 10
11 21 -13 16 -34z"/>
<path d="M2180 2530 c0 -5 5 -10 11 -10 5 0 7 5 4 10 -3 6 -8 10 -11 10 -2 0
-4 -4 -4 -10z"/>
<path d="M1785 2487 c-16 -5 -31 -11 -32 -12 -2 -1 4 -41 13 -88 16 -86 24
-97 54 -77 13 8 12 10 -2 10 -25 0 -23 38 5 80 43 65 24 108 -38 87z"/>
<path d="M1916 2482 c-4 -7 -4 -28 0 -48 6 -31 9 -35 30 -30 32 9 31 -11 -3
-42 -19 -17 -22 -22 -10 -18 11 3 30 9 44 12 22 6 24 11 19 37 -3 16 -6 33 -6
38 0 5 -6 9 -14 9 -8 0 -23 12 -34 27 -12 17 -21 22 -26 15z"/>
<path d="M2098 2222 c10 -45 19 -68 24 -60 11 18 10 48 -2 48 -5 0 -10 10 -10
23 0 13 -6 32 -14 42 -11 15 -10 5 2 -53z"/>
<path d="M1810 1799 c0 -15 18 -19 23 -6 3 8 -1 14 -9 14 -8 0 -14 -4 -14 -8z"/>
<path d="M1778 1769 c-9 -10 -14 -20 -10 -23 3 -3 -4 -6 -15 -6 -12 0 -23 -4
-25 -9 -3 -7 -188 -81 -355 -141 -35 -13 -63 -27 -63 -32 0 -18 83 3 270 69
102 35 191 66 199 69 8 2 11 12 8 24 -3 12 1 24 10 29 10 5 13 13 7 23 -8 12
-11 12 -26 -3z"/>
<path d="M1000 1770 c-31 -5 -33 -6 -11 -12 12 -4 20 -11 17 -16 -3 -5 5 -12
19 -14 13 -3 22 -1 19 3 -3 5 1 9 8 9 9 0 9 3 2 8 -6 4 -13 12 -15 17 -2 6
-20 8 -39 5z"/>
<path d="M1170 1640 c0 -6 7 -13 15 -16 8 -4 12 -11 8 -17 -3 -6 -1 -7 6 -3 6
4 24 0 39 -9 18 -11 15 -5 -12 19 -40 37 -56 44 -56 26z"/>
<path d="M674 955 c-17 -13 -17 -14 -2 -15 9 0 20 5 23 11 11 17 0 20 -21 4z"/>
<path d="M1473 893 c-15 -5 -17 -23 -4 -23 5 0 11 7 15 15 3 8 4 15 3 14 -1 0
-8 -3 -14 -6z"/>
<path d="M935 880 c-27 -7 -28 -8 -5 -8 14 0 34 3 45 8 25 11 2 11 -40 0z"/>
<path d="M845 870 c11 -5 27 -9 35 -9 9 0 8 4 -5 9 -11 5 -27 9 -35 9 -9 0 -8
-4 5 -9z"/>
<path d="M1235 860 c-13 -6 -15 -9 -5 -9 8 0 22 4 30 9 18 12 2 12 -25 0z"/>
<path d="M1440 849 c0 -5 5 -7 10 -4 6 3 10 8 10 11 0 2 -4 4 -10 4 -5 0 -10
-5 -10 -11z"/>
<path d="M1190 810 c-18 -12 -2 -12 25 0 13 6 15 9 5 9 -8 0 -22 -4 -30 -9z"/>
<path d="M1500 810 c0 -6 -15 -17 -32 -25 l-33 -14 28 -1 c29 0 57 19 57 39 0
6 -4 11 -10 11 -5 0 -10 -5 -10 -10z"/>
<path d="M1130 790 c-8 -5 -10 -10 -5 -10 6 0 17 5 25 10 8 5 11 10 5 10 -5 0
-17 -5 -25 -10z"/>
<path d="M1507 770 c-16 -17 -21 -27 -12 -23 9 3 26 7 38 8 41 4 42 5 27 15
-11 7 -11 10 -2 10 7 0 10 5 7 10 -10 17 -29 10 -58 -20z"/>
<path d="M1045 779 c-4 -6 -5 -12 -4 -13 8 -7 69 7 69 15 0 13 -57 11 -65 -2z"/>
<path d="M1527 733 c-15 -2 -25 -8 -22 -13 5 -8 62 3 73 15 6 5 -4 5 -51 -2z"/>
<path d="M1540 700 l-25 -8 25 0 c14 0 34 3 45 8 l20 9 -20 -1 c-11 0 -31 -4
-45 -8z"/>
<path d="M1475 670 c4 -6 11 -8 16 -5 14 9 11 15 -7 15 -8 0 -12 -5 -9 -10z"/>
<path d="M3738 4063 c7 -3 16 -2 19 1 4 3 -2 6 -13 5 -11 0 -14 -3 -6 -6z"/>
<path d="M3975 4050 c3 -5 8 -10 11 -10 2 0 4 5 4 10 0 6 -5 10 -11 10 -5 0
-7 -4 -4 -10z"/>
<path d="M5597 3999 c7 -7 15 -10 18 -7 3 3 -2 9 -12 12 -14 6 -15 5 -6 -5z"/>
<path d="M5417 3874 c-10 -11 89 -45 108 -37 24 9 17 20 -15 27 -16 3 -42 9
-58 12 -15 3 -31 2 -35 -2z"/>
<path d="M4879 3733 c-6 -15 -14 -47 -19 -71 -4 -24 -10 -46 -13 -49 -4 -3 5
-27 18 -54 14 -27 25 -63 25 -81 0 -50 10 -60 43 -43 15 7 27 10 27 5 0 -4 11
-11 25 -14 19 -5 25 -13 25 -35 0 -16 -7 -34 -15 -41 -17 -14 -20 -40 -5 -40
6 0 10 6 10 13 0 7 3 8 8 2 4 -5 23 -10 43 -11 31 0 39 5 70 50 32 47 34 54
34 130 0 93 -4 113 -28 149 -9 15 -17 30 -17 35 0 5 -19 12 -42 14 -36 4 -69
17 -170 66 -5 2 -13 -9 -19 -25z m136 -229 c-20 -20 -22 -18 -17 18 4 29 6 30
18 13 11 -14 11 -20 -1 -31z"/>
<path d="M5290 3580 c0 -5 5 -10 11 -10 5 0 7 5 4 10 -3 6 -8 10 -11 10 -2 0
-4 -4 -4 -10z"/>
<path d="M5281 3544 c0 -11 3 -14 6 -6 3 7 2 16 -1 19 -3 4 -6 -2 -5 -13z"/>
<path d="M3458 3513 c7 -3 16 -2 19 1 4 3 -2 6 -13 5 -11 0 -14 -3 -6 -6z"/>
<path d="M4446 3494 c-4 -10 -1 -14 6 -12 15 5 23 28 10 28 -5 0 -13 -7 -16
-16z"/>
<path d="M5251 3453 c0 -6 -4 -20 -7 -30 -5 -14 -4 -15 5 -7 7 7 11 20 8 30
-3 11 -5 14 -6 7z"/>
<path d="M5189 3350 c-25 -27 -58 -52 -72 -56 -15 -3 -28 -9 -28 -13 -1 -3 -3
-16 -4 -28 -2 -20 0 -21 19 -11 11 6 27 17 34 25 7 7 20 13 28 13 8 0 14 5 14
12 0 6 8 21 18 32 16 18 46 76 39 76 -1 0 -23 -22 -48 -50z"/>
<path d="M4935 3331 c-3 -5 -1 -12 5 -16 12 -7 30 2 30 16 0 12 -27 12 -35 0z"/>
<path d="M4845 3287 c-11 -7 -22 -13 -25 -15 -7 -5 24 -22 40 -22 8 1 23 12
33 25 18 25 18 25 -5 24 -13 0 -32 -6 -43 -12z"/>
<path d="M3292 2937 c-9 -11 -10 -17 -2 -22 15 -9 23 -1 18 21 -3 15 -4 16
-16 1z"/>
<path d="M3318 2753 c7 -3 16 -2 19 1 4 3 -2 6 -13 5 -11 0 -14 -3 -6 -6z"/>
<path d="M3320 2715 c7 -9 15 -13 17 -11 7 7 -7 26 -19 26 -6 0 -6 -6 2 -15z"/>
<path d="M3815 2640 c-3 -6 1 -7 9 -4 18 7 21 14 7 14 -6 0 -13 -4 -16 -10z"/>
<path d="M3820 2590 c0 -13 18 -22 24 -11 3 5 -1 11 -9 15 -8 3 -15 1 -15 -4z"/>
<path d="M4511 2304 c0 -11 3 -14 6 -6 3 7 2 16 -1 19 -3 4 -6 -2 -5 -13z"/>
<path d="M3756 2301 c-3 -4 6 -6 19 -3 20 3 24 1 19 -12 -8 -20 3 -21 21 -2
12 12 11 15 -8 20 -31 8 -45 7 -51 -3z"/>
<path d="M3510 2269 c0 -5 5 -7 10 -4 6 3 10 8 10 11 0 2 -4 4 -10 4 -5 0 -10
-5 -10 -11z"/>
<path d="M3895 2229 c-4 -6 -5 -12 -2 -15 2 -3 7 2 10 11 7 17 1 20 -8 4z"/>
<path d="M3595 2130 c-3 -5 1 -10 9 -10 9 0 16 5 16 10 0 6 -4 10 -9 10 -6 0
-13 -4 -16 -10z"/>
<path d="M4520 2045 c-7 -9 -10 -18 -7 -21 3 -3 10 4 17 15 13 25 8 27 -10 6z"/>
<path d="M4590 1830 c0 -5 5 -10 11 -10 5 0 7 5 4 10 -3 6 -8 10 -11 10 -2 0
-4 -4 -4 -10z"/>
<path d="M6540 4510 c0 -5 5 -10 10 -10 6 0 10 5 10 10 0 6 -4 10 -10 10 -5 0
-10 -4 -10 -10z"/>
<path d="M6509 4473 c-13 -15 -12 -15 11 -3 34 17 36 20 18 20 -9 0 -22 -7
-29 -17z"/>
<path d="M6510 4420 c0 -5 5 -10 10 -10 6 0 10 5 10 10 0 6 -4 10 -10 10 -5 0
-10 -4 -10 -10z"/>
<path d="M875 3930 c-3 -5 -2 -10 4 -10 5 0 13 5 16 10 3 6 2 10 -4 10 -5 0
-13 -4 -16 -10z"/>
<path d="M6051 3278 c-34 -132 -39 -166 -29 -176 6 -6 6 -36 -1 -82 -12 -76
-8 -97 13 -67 13 17 36 23 36 9 0 -4 -6 -14 -12 -20 -10 -10 -10 -15 2 -22 8
-5 23 -10 33 -10 17 0 18 8 12 108 -7 123 -26 336 -29 340 -2 1 -13 -35 -25
-80z"/>
<path d="M6320 3040 c-1 -47 -5 -109 -9 -137 -4 -29 -6 -53 -5 -53 2 0 14 4
28 10 19 7 26 17 26 35 0 17 4 24 11 19 8 -4 8 0 0 15 -7 11 -16 21 -21 21 -6
0 -10 21 -11 48 0 26 -4 65 -8 87 -8 34 -9 28 -11 -45z"/>
<path d="M2041 2704 c0 -11 3 -14 6 -6 3 7 2 16 -1 19 -3 4 -6 -2 -5 -13z"/>
<path d="M370 2609 c0 -5 5 -7 10 -4 6 3 10 8 10 11 0 2 -4 4 -10 4 -5 0 -10
-5 -10 -11z"/>
<path d="M557 1162 c-10 -10 -17 -26 -17 -35 0 -21 38 -47 70 -47 29 0 70 33
70 55 0 43 -91 63 -123 27z"/>
<path d="M6910 7185 c0 -8 5 -15 10 -15 6 0 10 7 10 15 0 8 -4 15 -10 15 -5 0
-10 -7 -10 -15z"/>
<path d="M4688 7163 c6 -2 18 -2 25 0 6 3 1 5 -13 5 -14 0 -19 -2 -12 -5z"/>
<path d="M3320 7135 c0 -14 3 -25 8 -25 11 0 32 37 25 44 -15 15 -33 4 -33
-19z"/>
<path d="M6905 7150 c3 -5 11 -10 16 -10 6 0 7 5 4 10 -3 6 -11 10 -16 10 -6
0 -7 -4 -4 -10z"/>
<path d="M1300 7141 c0 -6 9 -11 19 -11 11 0 28 -3 38 -6 14 -4 15 -4 3 4 -27
17 -60 24 -60 13z"/>
<path d="M5408 7143 c7 -3 16 -2 19 1 4 3 -2 6 -13 5 -11 0 -14 -3 -6 -6z"/>
<path d="M5243 7133 c9 -2 23 -2 30 0 6 3 -1 5 -18 5 -16 0 -22 -2 -12 -5z"/>
<path d="M1868 7113 c7 -3 16 -2 19 1 4 3 -2 6 -13 5 -11 0 -14 -3 -6 -6z"/>
<path d="M2705 7110 c-3 -5 1 -10 9 -10 9 0 16 5 16 10 0 6 -4 10 -9 10 -6 0
-13 -4 -16 -10z"/>
<path d="M3035 7110 c-3 -5 1 -10 9 -10 9 0 16 5 16 10 0 6 -4 10 -9 10 -6 0
-13 -4 -16 -10z"/>
<path d="M2888 7093 c6 -2 18 -2 25 0 6 3 1 5 -13 5 -14 0 -19 -2 -12 -5z"/>
<path d="M1865 7080 c3 -5 15 -10 26 -10 11 0 17 5 14 10 -3 6 -15 10 -26 10
-11 0 -17 -4 -14 -10z"/>
<path d="M2525 7080 c3 -5 10 -10 16 -10 5 0 9 5 9 10 0 6 -7 10 -16 10 -8 0
-12 -4 -9 -10z"/>
<path d="M3725 7080 c-3 -5 1 -10 9 -10 9 0 16 5 16 10 0 6 -4 10 -9 10 -6 0
-13 -4 -16 -10z"/>
<path d="M3670 7060 c13 -11 25 -18 28 -16 7 7 -25 36 -39 36 -7 0 -2 -9 11
-20z"/>
<path d="M498 7052 c-10 -2 -18 -8 -18 -13 0 -13 27 -11 35 2 9 13 4 16 -17
11z"/>
<path d="M85 6531 c-3 -5 -1 -12 5 -16 5 -3 10 1 10 9 0 18 -6 21 -15 7z"/>
<path d="M7194 6160 c0 -74 1 -105 3 -67 2 37 2 97 0 135 -2 37 -3 6 -3 -68z"/>
<path d="M100 6160 c0 -5 5 -10 10 -10 6 0 10 5 10 10 0 6 -4 10 -10 10 -5 0
-10 -4 -10 -10z"/>
<path d="M7195 5390 c0 -311 1 -438 2 -283 2 156 2 410 0 565 -1 156 -2 29 -2
-282z"/>
<path d="M100 5840 c0 -5 5 -10 10 -10 6 0 10 5 10 10 0 6 -4 10 -10 10 -5 0
-10 -4 -10 -10z"/>
<path d="M7030 5796 c0 -14 5 -28 10 -31 6 -3 10 5 10 19 0 14 -4 28 -10 31
-6 3 -10 -5 -10 -19z"/>
<path d="M7052 5720 c0 -14 2 -19 5 -12 2 6 2 18 0 25 -3 6 -5 1 -5 -13z"/>
<path d="M55 5410 c-3 -5 -1 -10 4 -10 6 0 11 5 11 10 0 6 -2 10 -4 10 -3 0
-8 -4 -11 -10z"/>
<path d="M7058 5335 c-3 -14 -1 -28 3 -31 5 -3 9 9 9 25 0 38 -6 40 -12 6z"/>
<path d="M7058 5163 c5 -76 10 -83 11 -15 0 34 -2 62 -7 62 -4 0 -6 -21 -4
-47z"/>
<path d="M7073 4970 c0 -41 4 -84 8 -95 10 -27 10 41 -1 115 l-8 55 1 -75z"/>
<path d="M7045 4891 c-3 -5 -1 -12 5 -16 5 -3 10 1 10 9 0 18 -6 21 -15 7z"/>
<path d="M7073 4757 c-1 -50 1 -97 6 -104 4 -7 8 31 9 86 1 55 -1 102 -5 104
-5 3 -9 -36 -10 -86z"/>
<path d="M7030 4454 c0 -17 22 -14 28 4 2 7 -3 12 -12 12 -9 0 -16 -7 -16 -16z"/>
<path d="M7025 4299 c4 -24 11 -52 16 -61 5 -9 9 -25 9 -35 0 -28 15 -44 33
-37 9 3 17 14 17 23 0 14 -2 14 -10 1 -9 -13 -10 -13 -11 0 -1 8 -1 20 -1 25
2 22 -36 119 -47 123 -10 3 -11 -6 -6 -39z"/>
<path d="M7072 4300 c0 -14 2 -19 5 -12 2 6 2 18 0 25 -3 6 -5 1 -5 -13z"/>
<path d="M7105 4120 c3 -5 8 -10 11 -10 2 0 4 5 4 10 0 6 -5 10 -11 10 -5 0
-7 -4 -4 -10z"/>
<path d="M177 3913 c-4 -3 -7 -11 -7 -17 0 -6 5 -5 12 2 6 6 9 14 7 17 -3 3
-9 2 -12 -2z"/>
<path d="M130 3649 c0 -5 5 -7 10 -4 6 3 10 8 10 11 0 2 -4 4 -10 4 -5 0 -10
-5 -10 -11z"/>
<path d="M7194 3490 c0 -85 2 -120 3 -77 2 42 2 112 0 155 -1 42 -3 7 -3 -78z"/>
<path d="M144 3588 c3 -13 6 -32 6 -43 1 -18 2 -18 10 -3 7 11 7 25 0 42 -12
32 -25 34 -16 4z"/>
<path d="M159 3508 c-6 -18 -4 -98 2 -98 5 0 9 23 9 50 0 28 -2 50 -5 50 -3 0
-5 -1 -6 -2z"/>
<path d="M151 3374 c0 -11 3 -14 6 -6 3 7 2 16 -1 19 -3 4 -6 -2 -5 -13z"/>
<path d="M146 3335 c-3 -8 -1 -15 4 -15 6 0 10 7 10 15 0 8 -2 15 -4 15 -2 0
-6 -7 -10 -15z"/>
<path d="M7191 3294 c0 -11 3 -14 6 -6 3 7 2 16 -1 19 -3 4 -6 -2 -5 -13z"/>
<path d="M145 3280 c-3 -5 -1 -10 4 -10 6 0 11 5 11 10 0 6 -2 10 -4 10 -3 0
-8 -4 -11 -10z"/>
<path d="M156 3181 c-4 -7 -5 -15 -2 -18 9 -9 19 4 14 18 -4 11 -6 11 -12 0z"/>
<path d="M152 3045 c-1 -19 3 -35 8 -35 12 0 13 40 1 58 -5 8 -8 0 -9 -23z"/>
<path d="M150 2970 c0 -5 5 -10 10 -10 6 0 10 5 10 10 0 6 -4 10 -10 10 -5 0
-10 -4 -10 -10z"/>
<path d="M156 2918 c-9 -37 -7 -108 4 -108 6 0 10 28 10 65 0 68 -4 80 -14 43z"/>
<path d="M7110 2851 c0 -6 5 -13 10 -16 6 -3 10 1 10 9 0 9 -4 16 -10 16 -5 0
-10 -4 -10 -9z"/>
<path d="M154 2740 c4 -25 2 -40 -4 -40 -5 0 -10 -4 -10 -10 0 -5 7 -7 14 -4
16 6 18 94 2 94 -5 0 -6 -18 -2 -40z"/>
<path d="M175 2590 c-3 -5 -1 -10 4 -10 6 0 11 5 11 10 0 6 -2 10 -4 10 -3 0
-8 -4 -11 -10z"/>
<path d="M162 2430 c0 -14 2 -19 5 -12 2 6 2 18 0 25 -3 6 -5 1 -5 -13z"/>
<path d="M150 2355 c0 -8 5 -15 10 -15 6 0 10 7 10 15 0 8 -4 15 -10 15 -5 0
-10 -7 -10 -15z"/>
<path d="M140 2282 c0 -5 7 -15 15 -22 8 -7 15 -8 15 -2 0 5 -7 15 -15 22 -8
7 -15 8 -15 2z"/>
<path d="M7195 1780 c0 -272 1 -384 2 -247 2 136 2 358 0 495 -1 136 -2 24 -2
-248z"/>
<path d="M141 2196 c-11 -14 -16 -14 -23 -4 -11 17 -38 -17 -38 -49 0 -29 16
-30 23 -1 6 21 7 21 25 5 18 -16 20 -16 37 4 13 13 15 23 9 27 -6 4 -13 13
-15 21 -4 10 -8 10 -18 -3z"/>
<path d="M60 2024 c0 -8 5 -12 10 -9 6 3 10 10 10 16 0 5 -4 9 -10 9 -5 0 -10
-7 -10 -16z"/>
<path d="M130 2030 c0 -5 5 -10 10 -10 6 0 10 5 10 10 0 6 -4 10 -10 10 -5 0
-10 -4 -10 -10z"/>
<path d="M105 1980 c-4 -6 -2 -10 4 -10 5 0 14 -12 19 -27 l10 -28 1 31 c1 31
-22 53 -34 34z"/>
<path d="M60 1716 c0 -9 5 -16 10 -16 6 0 10 4 10 9 0 6 -4 13 -10 16 -5 3
-10 -1 -10 -9z"/>
<path d="M68 1656 c-17 -35 -13 -86 8 -93 11 -4 13 36 2 53 -4 6 -1 20 7 30 8
10 15 25 15 32 0 22 -15 12 -32 -22z"/>
<path d="M50 1670 c0 -5 5 -10 10 -10 6 0 10 5 10 10 0 6 -4 10 -10 10 -5 0
-10 -4 -10 -10z"/>
<path d="M10 1628 c0 -15 5 -30 10 -33 13 -8 13 25 0 45 -8 12 -10 9 -10 -12z"/>
<path d="M158 1613 c6 -2 18 -2 25 0 6 3 1 5 -13 5 -14 0 -19 -2 -12 -5z"/>
<path d="M7064 1592 c-4 -9 -13 -42 -20 -72 -7 -30 -15 -65 -19 -77 -5 -17 -3
-23 8 -23 17 0 47 77 47 122 0 18 5 28 15 28 21 0 19 13 -4 27 -16 10 -21 9
-27 -5z"/>
<path d="M7082 1460 c0 -14 2 -19 5 -12 2 6 2 18 0 25 -3 6 -5 1 -5 -13z"/>
<path d="M100 1410 c0 -5 5 -10 10 -10 6 0 10 -7 10 -17 0 -9 3 -14 6 -10 8 8
-5 47 -17 47 -5 0 -9 -4 -9 -10z"/>
<path d="M7040 1305 c0 -8 5 -15 10 -15 6 0 10 7 10 15 0 8 -4 15 -10 15 -5 0
-10 -7 -10 -15z"/>
<path d="M7078 929 c-2 -105 0 -193 5 -196 4 -2 7 84 7 191 0 108 -2 196 -5
196 -2 0 -5 -86 -7 -191z"/>
<path d="M7190 560 l0 -540 -3492 -1 c-1921 -1 -3540 -5 -3598 -9 -58 -3 1516
-7 3498 -8 l3602 -2 0 550 c0 303 -2 550 -5 550 -3 0 -5 -243 -5 -540z"/>
<path d="M146 950 c6 -87 9 -100 23 -100 10 0 -5 146 -19 167 -8 14 -9 -2 -4
-67z"/>
<path d="M7050 874 c0 -8 5 -12 10 -9 6 4 8 11 5 16 -9 14 -15 11 -15 -7z"/>
<path d="M172 810 c0 -14 2 -19 5 -12 2 6 2 18 0 25 -3 6 -5 1 -5 -13z"/>
<path d="M120 790 c0 -5 5 -10 10 -10 6 0 10 5 10 10 0 6 -4 10 -10 10 -5 0
-10 -4 -10 -10z"/>
<path d="M97 740 c-3 -11 -1 -20 4 -20 5 0 9 9 9 20 0 11 -2 20 -4 20 -2 0 -6
-9 -9 -20z"/>
<path d="M142 700 c0 -14 2 -19 5 -12 2 6 2 18 0 25 -3 6 -5 1 -5 -13z"/>
<path d="M7071 680 c-7 -15 -6 -129 2 -115 4 8 6 39 4 68 -2 28 -4 50 -6 47z"/>
<path d="M7060 446 c0 -8 5 -18 10 -21 6 -3 10 3 10 14 0 12 -4 21 -10 21 -5
0 -10 -6 -10 -14z"/>
<path d="M172 400 c0 -19 2 -27 5 -17 2 9 2 25 0 35 -3 9 -5 1 -5 -18z"/>
<path d="M182 290 c0 -19 2 -27 5 -17 2 9 2 25 0 35 -3 9 -5 1 -5 -18z"/>
<path d="M7012 260 c0 -14 2 -19 5 -12 2 6 2 18 0 25 -3 6 -5 1 -5 -13z"/>
<path d="M4518 173 c7 -3 16 -2 19 1 4 3 -2 6 -13 5 -11 0 -14 -3 -6 -6z"/>
<path d="M7000 164 c0 -14 3 -14 15 -4 8 7 15 14 15 16 0 2 -7 4 -15 4 -8 0
-15 -7 -15 -16z"/>
<path d="M6260 155 c-19 -23 -4 -45 30 -45 18 0 33 6 36 15 8 19 -13 45 -36
45 -10 0 -23 -7 -30 -15z"/>
<path d="M15 130 c3 -5 8 -10 11 -10 2 0 4 5 4 10 0 6 -5 10 -11 10 -5 0 -7
-4 -4 -10z"/>
<path d="M190 120 c0 -5 5 -10 11 -10 5 0 7 5 4 10 -3 6 -8 10 -11 10 -2 0 -4
-4 -4 -10z"/>
</g>
</svg>
